<?xml version="1.0" encoding="UTF-8" standalone="no"?>
<svg width="200px" height="200px" viewBox="0 0 200 200" version="1.1" xmlns="http://www.w3.org/2000/svg" xmlns:xlink="http://www.w3.org/1999/xlink" xmlns:sketch="http://www.bohemiancoding.com/sketch/ns">
    <title>Facebook</title>
    <description>Created with Sketch (http://www.bohemiancoding.com/sketch)</description>
    <defs></defs>
    <g id="Page-1" stroke="none" stroke-width="1" fill="none" fill-rule="evenodd" sketch:type="MSPage">
        <path d="M80.3034395,198.060753 C34.5074589,188.912991 0,148.486428 0,100 C0,44.7714 44.7714,0 100,0 C155.2286,0 200,44.7714 200,100 C200,151.83582 160.560395,194.459781 110.051993,199.501075 L110.051993,162.817593 L110.051993,125.501436 L124.471404,125.367687 L138.890815,125.233937 L139.306759,115.336462 C139.588936,109.885039 139.836506,103.783273 139.861352,101.827745 L140,98.3502541 L125.025997,98.3502541 L110.051993,98.3502541 L110.190641,85.7777856 C110.322191,73.6397359 110.326406,73.0903993 111.299827,71.3328217 C113.362468,67.608589 116.171813,66.9314947 129.740035,66.9190827 L139.445407,66.9190827 L139.722704,54.4803638 C139.898177,47.7000048 139.96983,42.1462907 139.861352,42.0416449 C139.358669,41.5567221 130.494503,40.9932615 122.807626,40.9716476 C113.439445,40.9453257 108.802828,41.4777563 103.258232,43.3791416 C92.4161664,47.0971683 85.2503847,54.3309922 81.7677643,65.0465874 C80.9145789,67.6715048 80.8160832,69.1844811 80.6585789,83.1027923 L80.5199307,98.3502541 L70.2599653,98.3502541 L60,98.3502541 L60,111.85897 L60,125.501436 L70.3986135,125.501436 L80.6585789,125.501436 L80.3812825,162.416344 C80.2399717,179.043664 80.213175,193.317524 80.3034395,198.060753 Z" id="Facebook" fill="#808080" sketch:type="MSShapeGroup"></path>
    </g>
</svg>