<?xml version="1.0" encoding="UTF-8" standalone="no"?>
<svg width="311px" height="281px" viewBox="0 0 311 281" version="1.1" xmlns="http://www.w3.org/2000/svg" xmlns:xlink="http://www.w3.org/1999/xlink" xmlns:sketch="http://www.bohemiancoding.com/sketch/ns">
    <!-- Generator: Sketch 3.4 (15588) - http://www.bohemiancoding.com/sketch -->
    <title>Shape</title>
    <desc>Created with Sketch.</desc>
    <defs></defs>
    <g id="Page-1" stroke="none" stroke-width="1" fill="none" fill-rule="evenodd" sketch:type="MSPage">
        <g id="Desktop-HD" sketch:type="MSArtboardGroup" transform="translate(-54.000000, -49.000000)" fill="#000000">
            <g id="Channel-Socket" sketch:type="MSLayerGroup" transform="translate(54.000000, 49.000000)">
                <path d="M191.480769,148.442308 L191.480769,179.980769 C191.480769,184.335322 187.950707,187.865385 183.596154,187.865385 C182.255769,187.865385 180.994231,187.865385 176.184615,183.923077 C171.296154,179.980769 163.017308,172.096154 154.501923,168.153846 C146.617308,164.526923 138.496154,164.211538 130.453846,164.211538 L139.994231,190.388462 L140.230769,191.807692 C140.230769,193.984969 138.465738,195.75 136.288462,195.75 L120.519231,195.75 C118.784615,195.75 117.286538,194.646154 116.813462,193.069231 L106.248077,164.211538 L104.75,164.211538 C100.395447,164.211538 96.8653846,160.681476 96.8653846,156.326923 C88.1562789,156.326923 81.0961538,149.266798 81.0961538,140.557692 C81.0961538,131.848587 88.1562789,124.788462 96.8653846,124.788462 C96.8653846,120.433909 100.395447,116.903846 104.75,116.903846 L128.403846,116.903846 C137.155769,116.903846 145.907692,116.903846 154.501923,112.961538 C163.017308,109.019231 171.296154,101.134615 176.184615,97.1923077 C180.994231,93.25 182.255769,93.25 183.596154,93.25 C187.950707,93.25 191.480769,96.7800625 191.480769,101.134615 L191.480769,132.673077 C195.835322,132.673077 199.365385,136.203139 199.365385,140.557692 C199.365385,144.912245 195.835322,148.442308 191.480769,148.442308 L191.480769,148.442308 Z M236.903846,140.557692 C236.903846,151.438462 232.488462,161.294231 225.392308,168.469231 L214.196154,157.273077 C218.453846,153.015385 221.134615,147.101923 221.134615,140.557692 C221.134615,134.013462 218.453846,128.1 214.196154,123.842308 L225.392308,112.646154 C232.488462,119.821154 236.903846,129.676923 236.903846,140.557692 L236.903846,140.557692 Z M96.4881015,258.175155 C91.5104407,258.175155 87.1877354,255.42336 84.9608872,251.230148 L26.8008515,147.71023 C25.2289586,145.613624 24.4430122,142.992867 24.4430122,140.241071 C24.4430122,137.489276 25.2289586,134.868519 26.8008515,132.771913 L84.9608872,29.251995 C87.1877354,25.0587831 91.5104407,22.3069878 96.4881015,22.3069878 L214.380066,22.3069878 C219.357726,22.3069878 223.680432,25.0587831 225.90728,29.251995 L284.067316,132.771913 C285.639209,134.868519 286.425155,137.489276 286.425155,140.241071 C286.425155,142.992867 285.639209,145.613624 284.067316,147.71023 L225.90728,251.230148 C223.680432,255.42336 219.357726,258.175155 214.380066,258.175155 L96.4881015,258.175155 L96.4881015,258.175155 Z M85.525,280.241071 C79.616,280.241071 74.4845,276.974405 71.841,271.996627 L2.799,149.107738 C0.933,146.618849 0,143.507738 0,140.241071 C0,136.974405 0.933,133.863294 2.799,131.374405 L71.841,8.48551587 C74.4845,3.5077381 79.616,0.241071429 85.525,0.241071429 L225.475,0.241071429 C231.384,0.241071429 236.5155,3.5077381 239.159,8.48551587 L308.201,131.374405 C310.067,133.863294 311,136.974405 311,140.241071 C311,143.507738 310.067,146.618849 308.201,149.107738 L239.159,271.996627 C236.5155,276.974405 231.384,280.241071 225.475,280.241071 L85.525,280.241071 L85.525,280.241071 Z" id="Shape" sketch:type="MSShapeGroup"></path>
            </g>
        </g>
    </g>
</svg>