<?xml version="1.0" encoding="UTF-8" standalone="no"?>
<svg width="311px" height="281px" viewBox="0 0 311 281" version="1.1" xmlns="http://www.w3.org/2000/svg" xmlns:xlink="http://www.w3.org/1999/xlink" xmlns:sketch="http://www.bohemiancoding.com/sketch/ns">
    <!-- Generator: Sketch 3.4 (15588) - http://www.bohemiancoding.com/sketch -->
    <title>Shape</title>
    <desc>Created with Sketch.</desc>
    <defs></defs>
    <g id="Page-1" stroke="none" stroke-width="1" fill="none" fill-rule="evenodd" sketch:type="MSPage">
        <g id="Desktop-HD" sketch:type="MSArtboardGroup" transform="translate(-1089.000000, -48.000000)" fill="#000000">
            <g id="DB-Socket-Icon" sketch:type="MSLayerGroup" transform="translate(1089.000000, 48.000000)">
                <path d="M96.4881015,258.925155 C91.5104407,258.925155 87.1877354,256.17336 84.9608872,251.980148 L26.8008515,148.46023 C25.2289586,146.363624 24.4430122,143.742867 24.4430122,140.991071 C24.4430122,138.239276 25.2289586,135.618519 26.8008515,133.521913 L84.9608872,30.001995 C87.1877354,25.8087831 91.5104407,23.0569878 96.4881015,23.0569878 L214.380066,23.0569878 C219.357726,23.0569878 223.680432,25.8087831 225.90728,30.001995 L284.067316,133.521913 C285.639209,135.618519 286.425155,138.239276 286.425155,140.991071 C286.425155,143.742867 285.639209,146.363624 284.067316,148.46023 L225.90728,251.980148 C223.680432,256.17336 219.357726,258.925155 214.380066,258.925155 L96.4881015,258.925155 L96.4881015,258.925155 Z M225.475,0.5 C231.384,0.5 236.5155,3.76666667 239.159,8.74444444 L308.201,131.633333 C310.067,134.122222 311,137.233333 311,140.5 C311,143.766667 310.067,146.877778 308.201,149.366667 L239.159,272.255556 C236.5155,277.233333 231.384,280.5 225.475,280.5 L85.525,280.5 C79.616,280.5 74.4845,277.233333 71.841,272.255556 L2.799,149.366667 C0.933,146.877778 3.30420358e-15,143.766667 2.70412665e-15,140.5 C2.10404972e-15,137.233333 0.933,134.122222 2.799,131.633333 L71.841,8.74444444 C74.4845,3.76666667 79.616,0.5 85.525,0.5 L225.475,0.5 L225.475,0.5 Z M157.894099,187.178237 C183.752336,187.178237 204.714578,166.473813 204.714578,140.933612 C204.714578,115.39341 183.752336,94.688986 157.894099,94.688986 C132.035863,94.688986 111.073621,115.39341 111.073621,140.933612 C111.073621,166.473813 132.035863,187.178237 157.894099,187.178237 L157.894099,187.178237 Z M157.525598,83.4124511 C173.047552,83.4124511 187.933767,89.5026856 198.909446,100.343373 C209.885124,111.18406 216.051197,125.887187 216.051197,141.218233 C216.051197,173.143485 189.848394,199.024015 157.525598,199.024015 C125.160942,199.024015 99,173.011413 99,141.218233 C99,109.292981 125.202803,83.4124511 157.525598,83.4124511 L157.525598,83.4124511 Z M161.126865,112.731442 L161.126865,143.079478 L187.463385,158.513621 L183.073965,165.623733 L152.348026,147.414911 L152.348026,112.731442 L161.126865,112.731442 L161.126865,112.731442 Z" id="Shape" sketch:type="MSShapeGroup"></path>
            </g>
        </g>
    </g>
</svg>