<?xml version="1.0" encoding="UTF-8" standalone="no"?>
<svg width="311px" height="281px" viewBox="0 0 311 281" version="1.1" xmlns="http://www.w3.org/2000/svg" xmlns:xlink="http://www.w3.org/1999/xlink" xmlns:sketch="http://www.bohemiancoding.com/sketch/ns">
    <!-- Generator: Sketch 3.4 (15588) - http://www.bohemiancoding.com/sketch -->
    <title>Shape</title>
    <desc>Created with Sketch.</desc>
    <defs></defs>
    <g id="Page-1" stroke="none" stroke-width="1" fill="none" fill-rule="evenodd" sketch:type="MSPage">
        <g id="Desktop-HD" sketch:type="MSArtboardGroup" transform="translate(-749.000000, -48.000000)" fill="#000000">
            <g id="DB-Socket-Icon" sketch:type="MSLayerGroup" transform="translate(749.000000, 48.000000)">
                <path d="M189.75,79 L122.25,79 C116.036797,79 111,84.0062705 111,90.1818182 L111,101.363636 C111,107.539184 116.036797,112.545455 122.25,112.545455 L189.75,112.545455 C195.963203,112.545455 201,107.539184 201,101.363636 L201,90.1818182 C201,84.0062705 195.963203,79 189.75,79 L189.75,79 Z M133.5,101.363636 L122.25,101.363636 L122.25,90.1818182 L133.5,90.1818182 L133.5,101.363636 L133.5,101.363636 Z M189.75,123.727273 L122.25,123.727273 C116.036797,123.727273 111,128.733543 111,134.909091 L111,146.090909 C111,152.266457 116.036797,157.272727 122.25,157.272727 L189.75,157.272727 C195.963203,157.272727 201,152.266457 201,146.090909 L201,134.909091 C201,128.733543 195.963203,123.727273 189.75,123.727273 L189.75,123.727273 Z M133.5,146.090909 L122.25,146.090909 L122.25,134.909091 L133.5,134.909091 L133.5,146.090909 L133.5,146.090909 Z M189.75,168.454545 L122.25,168.454545 C116.036797,168.454545 111,173.460816 111,179.636364 L111,190.818182 C111,196.993729 116.036797,202 122.25,202 L189.75,202 C195.963203,202 201,196.993729 201,190.818182 L201,179.636364 C201,173.460816 195.963203,168.454545 189.75,168.454545 L189.75,168.454545 Z M133.5,190.818182 L122.25,190.818182 L122.25,179.636364 L133.5,179.636364 L133.5,190.818182 L133.5,190.818182 Z M96.4881015,258.925155 C91.5104407,258.925155 87.1877354,256.17336 84.9608872,251.980148 L26.8008515,148.46023 C25.2289586,146.363624 24.4430122,143.742867 24.4430122,140.991071 C24.4430122,138.239276 25.2289586,135.618519 26.8008515,133.521913 L84.9608872,30.001995 C87.1877354,25.8087831 91.5104407,23.0569878 96.4881015,23.0569878 L214.380066,23.0569878 C219.357726,23.0569878 223.680432,25.8087831 225.90728,30.001995 L284.067316,133.521913 C285.639209,135.618519 286.425155,138.239276 286.425155,140.991071 C286.425155,143.742867 285.639209,146.363624 284.067316,148.46023 L225.90728,251.980148 C223.680432,256.17336 219.357726,258.925155 214.380066,258.925155 L96.4881015,258.925155 L96.4881015,258.925155 Z M225.475,0.5 C231.384,0.5 236.5155,3.76666667 239.159,8.74444444 L308.201,131.633333 C310.067,134.122222 311,137.233333 311,140.5 C311,143.766667 310.067,146.877778 308.201,149.366667 L239.159,272.255556 C236.5155,277.233333 231.384,280.5 225.475,280.5 L85.525,280.5 C79.616,280.5 74.4845,277.233333 71.841,272.255556 L2.799,149.366667 C0.933,146.877778 3.30420358e-15,143.766667 2.70412665e-15,140.5 C2.10404972e-15,137.233333 0.933,134.122222 2.799,131.633333 L71.841,8.74444444 C74.4845,3.76666667 79.616,0.5 85.525,0.5 L225.475,0.5 L225.475,0.5 Z" id="Shape" sketch:type="MSShapeGroup"></path>
            </g>
        </g>
    </g>
</svg>