<?xml version="1.0" encoding="UTF-8" standalone="no"?>
<svg width="311px" height="281px" viewBox="0 0 311 281" version="1.1" xmlns="http://www.w3.org/2000/svg" xmlns:xlink="http://www.w3.org/1999/xlink" xmlns:sketch="http://www.bohemiancoding.com/sketch/ns">
    <!-- Generator: Sketch 3.4 (15588) - http://www.bohemiancoding.com/sketch -->
    <title>Shape Copy</title>
    <desc>Created with Sketch.</desc>
    <defs></defs>
    <g id="Page-1" stroke="none" stroke-width="1" fill="none" fill-rule="evenodd" sketch:type="MSPage">
        <g id="Artboard-8" sketch:type="MSArtboardGroup" transform="translate(-405.000000, -35.000000)" fill="#000000">
            <g id="CodeBox-Socket-Icon" sketch:type="MSLayerGroup" transform="translate(405.000000, 35.000000)">
                <path d="M181.58,179.590972 L219.76,141.145833 L181.58,102.700694 L193.2,91 L243,141.145833 L193.2,191.291667 L181.58,179.590972 L181.58,179.590972 Z M85.525,280.5 C79.616,280.5 74.4845,277.233333 71.841,272.255556 L2.799,149.366667 C0.933,146.877778 0,143.766667 0,140.5 C0,137.233333 0.933,134.122222 2.799,131.633333 L71.841,8.74444444 C74.4845,3.76666667 79.616,0.5 85.525,0.5 L225.475,0.5 C231.384,0.5 236.5155,3.76666667 239.159,8.74444444 L308.201,131.633333 C310.067,134.122222 311,137.233333 311,140.5 C311,143.766667 310.067,146.877778 308.201,149.366667 L239.159,272.255556 C236.5155,277.233333 231.384,280.5 225.475,280.5 L85.525,280.5 L85.525,280.5 Z M96.4881015,258.925155 C91.5104407,258.925155 87.1877354,256.17336 84.9608872,251.980148 L26.8008515,148.46023 C25.2289586,146.363624 24.4430122,143.742867 24.4430122,140.991071 C24.4430122,138.239276 25.2289586,135.618519 26.8008515,133.521913 L84.9608872,30.001995 C87.1877354,25.8087831 91.5104407,23.0569878 96.4881015,23.0569878 L214.380066,23.0569878 C219.357726,23.0569878 223.680432,25.8087831 225.90728,30.001995 L284.067316,133.521913 C285.639209,135.618519 286.425155,138.239276 286.425155,140.991071 C286.425155,143.742867 285.639209,146.363624 284.067316,148.46023 L225.90728,251.980148 C223.680432,256.17336 219.357726,258.925155 214.380066,258.925155 L96.4881015,258.925155 L96.4881015,258.925155 Z M138.42,179.590972 L100.24,141.145833 L138.42,102.700694 L126.8,91 L77,141.145833 L126.8,191.291667 L138.42,179.590972 L138.42,179.590972 Z" id="Shape-Copy" sketch:type="MSShapeGroup"></path>
            </g>
        </g>
    </g>
</svg>