<?xml version="1.0" encoding="UTF-8" standalone="no"?>
<svg width="426px" height="371px" viewBox="0 0 426 371" version="1.1" xmlns="http://www.w3.org/2000/svg" xmlns:xlink="http://www.w3.org/1999/xlink">
    <!-- Generator: Sketch 3.6.1 (26313) - http://www.bohemiancoding.com/sketch -->
    <title>Logo Square</title>
    <desc>Created with Sketch.</desc>
    <defs></defs>
    <g id="Logos" stroke="none" stroke-width="1" fill="none" fill-rule="evenodd">
        <g id="512-full" transform="translate(-43.000000, -71.000000)" fill="#212121">
            <g id="Logo-Square" transform="translate(43.000000, 71.000000)">
                <path d="M222.997527,105.446321 L270.58248,105.446321 L270.58248,133.425281 L222.997527,133.425281 L222.997527,105.446321 Z M298.631609,27.6908406 C303.082087,35.4296377 307.8511,64.4689541 269.146067,89.5228954 C266.264225,84.4018541 262.366676,79.7477313 257.636729,75.7292201 C267.965083,67.734371 288.156008,50.1360633 298.631609,27.6908406 L298.631609,27.6908406 Z M155.498113,105.446321 L203.083066,105.446321 L203.083066,133.425281 L155.498113,133.425281 L155.498113,105.446321 Z M127.445979,27.6908406 C137.924585,50.1360633 158.11551,67.734371 168.443864,75.7292201 C163.716922,79.7477313 159.816368,84.3988417 156.934526,89.5168706 C118.238508,64.4629293 123.007521,35.4266253 127.445979,27.6908406 L127.445979,27.6908406 Z M318.51001,139.413887 L316.289278,138.949981 C314.038496,138.474025 312.971704,136.368373 313.903269,134.265734 L315.336678,131.096713 C316.271248,128.994074 315.625162,127.439687 313.888244,127.647541 C312.14231,127.843346 309.491857,129.436893 307.980317,131.184072 L303.418653,136.431633 C303.418653,136.431633 287.34765,148.963123 251.719787,149.267373 C255.2988,146.920731 258.550264,144.260802 261.40506,141.335783 L270.58248,141.335783 C274.939802,141.335783 278.470735,137.787203 278.470735,133.425281 L278.470735,105.446321 C278.470735,101.846531 276.054675,98.8401781 272.767151,97.8882669 C272.562808,97.2285563 272.3795,96.5598085 272.145106,95.9151598 C329.424348,57.4320409 304.227011,10.2732756 293.937723,0.591495203 C288.660856,18.5753872 262.093217,48.2141666 243.918679,66.9722395 C234.831411,62.6946639 224.304723,60.2064403 213.044804,60.2064403 C201.778875,60.2064403 191.252188,62.6946639 182.161914,66.9722395 C163.990382,48.2141666 137.428752,18.5753872 132.148881,0.591495203 C121.853582,10.2732756 96.6592501,57.4290285 153.938492,95.9121474 C153.698088,96.5567962 153.517785,97.2285563 153.310437,97.8882669 C150.025918,98.8431905 147.609859,101.846531 147.609859,105.446321 L147.609859,133.425281 C147.609859,137.787203 151.140791,141.335783 155.498113,141.335783 L164.675533,141.335783 C167.533335,144.260802 170.784798,146.920731 174.360806,149.267373 C138.735948,148.966135 122.658935,136.431633 122.658935,136.431633 L118.097271,131.184072 C116.588736,129.436893 113.941288,127.843346 112.192349,127.647541 C110.458436,127.439687 109.81235,128.994074 110.743915,131.096713 L112.174319,134.265734 C113.108889,136.368373 112.042097,138.474025 109.791315,138.949981 L107.570584,139.413887 C107.570584,139.413887 30.271704,153.111166 0.69,185.843657 C0.69,185.843657 25.4486001,185.849682 26.3260744,209.352249 C26.3260744,209.352249 76.729764,192.211822 112.2224,227.140336 C112.2224,227.140336 164.858841,205.002376 213.038794,268.786451 C261.221752,205.002376 313.852183,227.140336 313.852183,227.140336 C349.350829,192.211822 399.754519,209.352249 399.754519,209.352249 C400.631993,185.849682 425.390593,185.843657 425.390593,185.843657 C395.805884,153.111166 318.51001,139.413887 318.51001,139.413887 Z M238.230121,169.097852 C234.8254,165.82641 217.759726,175.990171 214.61344,177.909055 C214.132632,177.779523 213.609753,177.707226 213.038794,177.707226 C212.473845,177.707226 211.941951,177.779523 211.470158,177.909055 C208.320867,175.990171 191.249183,165.82641 187.853477,169.097852 C184.106181,172.703667 184.914539,194.395796 195.04456,189.946515 C202.031299,186.882927 209.646094,183.762104 212.16733,181.231707 C212.449804,181.273881 212.735284,181.300992 213.038794,181.300992 C213.342304,181.300992 213.633794,181.273881 213.910258,181.231707 C216.44051,183.762104 224.037274,186.882927 231.030023,189.946515 C241.166054,194.395796 241.974412,172.703667 238.230121,169.097852 Z" id="HackBat"></path>
                <path d="M14.665332,369.346378 L14.665332,309.596442 L27.0997782,309.596442 L27.0997782,333.859761 L51.8071841,333.859761 L51.8071841,309.596442 L64.2416302,309.596442 L64.2416302,369.346378 L51.8071841,369.346378 L51.8071841,342.095563 L27.0997782,342.095563 L27.0997782,369.346378 L14.665332,369.346378 Z M72.6389185,369.346378 L95.8929476,309.596442 L108.327394,309.596442 L131.581423,369.346378 L118.824004,369.346378 L112.606781,353.399605 L87.8993751,353.399605 L81.6821521,369.346378 L72.6389185,369.346378 Z M90.9676151,345.446404 L109.538541,345.446404 L100.253078,321.627173 L90.9676151,345.446404 Z M188.142004,366.964455 C182.355382,369.548249 175.451911,370.840127 167.431384,370.840127 C157.634499,370.840127 150.004347,368.08143 144.540699,362.563953 C139.077052,357.046476 136.345269,349.349039 136.345269,339.47141 C136.345269,329.40538 139.097238,321.660843 144.601257,316.237567 C150.105276,310.814291 157.95747,308.102694 168.158073,308.102694 C174.671387,308.102694 181.144232,308.869746 187.576802,310.403874 L187.576802,320.133424 C180.282967,317.576545 174.173463,316.298124 169.248105,316.298124 C162.950108,316.298124 158.09211,318.296497 154.673966,322.293304 C151.255822,326.29011 149.546775,331.96226 149.546775,339.309924 C149.546775,346.523015 151.383664,352.148066 155.057496,356.185244 C158.731328,360.222422 163.838281,362.24098 170.37851,362.24098 C176.245875,362.24098 182.166981,360.760704 188.142004,357.800107 L188.142004,366.964455 Z M198.961587,369.346378 L198.961587,309.596442 L210.911574,309.596442 L210.911574,338.583236 L233.761888,309.596442 L244.097012,309.596442 L223.386392,336.40317 L249.103087,369.346378 L233.56003,369.346378 L210.911574,339.955869 L210.911574,369.346378 L198.961587,369.346378 Z M257.661862,369.346378 L257.661862,309.596442 L270.096308,309.596442 L270.096308,360.868347 L297.024151,360.868347 L297.024151,369.346378 L257.661862,369.346378 Z M299.204216,369.346378 L322.458245,309.596442 L334.892691,309.596442 L358.14672,369.346378 L345.389302,369.346378 L339.172079,353.399605 L314.464673,353.399605 L308.24745,369.346378 L299.204216,369.346378 Z M317.532913,345.446404 L336.103839,345.446404 L326.818376,321.627173 L317.532913,345.446404 Z M414.343957,367.933373 C406.861721,369.871218 400.402333,370.840127 394.9656,370.840127 C384.657339,370.840127 376.73786,368.128529 371.206926,362.705254 C365.675992,357.281978 362.910567,349.510527 362.910567,339.390667 C362.910567,329.351551 365.675992,321.6272 371.206926,316.217381 C376.73786,310.807563 384.616967,308.102694 394.844485,308.102694 C401.384713,308.102694 407.871016,308.869746 414.303586,310.403874 L414.303586,320.133424 C406.848264,317.576545 400.725302,316.298124 395.934518,316.298124 C389.609605,316.298124 384.724693,318.316683 381.279635,322.353861 C377.834576,326.391039 376.112073,332.110289 376.112073,339.511782 C376.112073,346.671044 377.95569,352.289366 381.642979,356.366916 C385.330268,360.444466 390.417036,362.48321 396.903436,362.48321 C398.329905,362.48321 399.99858,362.281354 401.909511,361.877636 L401.909511,342.216678 L414.343957,342.216678 L414.343957,367.933373 Z" id="HACKLAG"></path>
            </g>
        </g>
    </g>
</svg>