<?xml version="1.0" encoding="UTF-8" standalone="no"?>
<svg width="506px" height="495px" viewBox="0 0 506 495" version="1.1" xmlns="http://www.w3.org/2000/svg" xmlns:xlink="http://www.w3.org/1999/xlink">
    <!-- Generator: Sketch 3.6.1 (26313) - http://www.bohemiancoding.com/sketch -->
    <title>Logo Square</title>
    <desc>Created with Sketch.</desc>
    <defs></defs>
    <g id="Logos" stroke="none" stroke-width="1" fill="none" fill-rule="evenodd">
        <g id="Pintrest-Profile-Photo" transform="translate(-47.000000, -49.000000)">
            <g id="Logo-Square" transform="translate(47.000000, 49.000000)">
                <g id="Group-2" transform="translate(14.000000, 361.333265)" fill="#212121">
                    <path d="M133.918726,132.186743 L133.918726,103.647744 L143.618129,103.647744 C146.484899,103.647744 148.667082,104.187666 150.164744,105.267525 C151.662406,106.347384 152.411226,107.922156 152.411226,109.991886 C152.411226,113.424297 150.129415,115.853944 145.565723,117.280901 C150.900743,118.579303 153.568212,121.195352 153.568212,125.129126 C153.568212,127.404544 152.787254,129.149647 151.225315,130.364489 C149.663375,131.579331 147.423344,132.186743 144.505152,132.186743 L133.918726,132.186743 Z M139.510827,115.526138 L140.918494,115.526138 C142.589705,115.526138 143.917012,115.114769 144.900456,114.292019 C145.883899,113.469269 146.375613,112.35086 146.375613,110.936759 C146.375613,109.625501 145.980314,108.735273 145.189702,108.266048 C144.399091,107.796824 142.904665,107.562215 140.70638,107.562215 L139.510827,107.562215 L139.510827,115.526138 Z M139.510827,128.13729 L140.783512,128.13729 C143.277473,128.13729 144.996867,127.870543 145.941744,127.337041 C146.886621,126.803539 147.359052,125.829752 147.359052,124.415651 C147.359052,122.962983 146.72593,121.754587 145.459666,120.790426 C144.193402,119.826266 142.596134,119.344193 140.667814,119.344193 L139.510827,119.344193 L139.510827,128.13729 Z M158.836242,132.186743 L158.836242,103.647744 L164.775439,103.647744 L164.775439,132.186743 L158.836242,132.186743 Z M168.847916,132.186743 L179.954986,103.647744 L185.894183,103.647744 L197.001252,132.186743 L190.907791,132.186743 L187.938192,124.569915 L176.13693,124.569915 L173.167332,132.186743 L168.847916,132.186743 Z M177.602447,120.771143 L186.472676,120.771143 L182.037561,109.39411 L177.602447,120.771143 Z M201.32441,132.186743 L201.32441,120.694011 L197.525638,122.660888 L197.525638,118.939248 L201.32441,116.953088 L201.32441,103.647744 L207.263607,103.647744 L207.263607,113.752092 L212.026534,111.187439 L212.026534,114.986211 L207.263607,117.531581 L207.263607,128.13729 L220.125439,128.13729 L220.125439,132.186743 L201.32441,132.186743 Z M231.120552,132.186743 L231.120552,120.231216 L221.536847,103.647744 L228.093104,103.647744 L235.054306,115.699686 L242.324037,103.647744 L247.029115,103.647744 L237.059749,120.19265 L237.059749,132.186743 L231.120552,132.186743 Z M249.886756,131.936062 L249.886756,127.038153 C252.959213,128.3237 255.588117,128.966464 257.773547,128.966464 C259.303348,128.966464 260.50853,128.625799 261.38913,127.944459 C262.269729,127.263119 262.710023,126.337539 262.710023,125.167692 C262.710023,124.242098 262.433634,123.46114 261.880849,122.824794 C261.328064,122.188448 260.280359,121.433201 258.737703,120.559029 L256.828675,119.498458 C254.270437,118.058646 252.46427,116.679917 251.410122,115.362232 C250.355973,114.044546 249.828907,112.505127 249.828907,110.743927 C249.828907,108.391377 250.693424,106.501651 252.422485,105.074694 C254.151545,103.647737 256.436571,102.934269 259.27763,102.934269 C261.553048,102.934269 264.117675,103.262079 266.971589,103.917708 L266.971589,108.487804 C264.053398,107.395089 261.745876,106.84874 260.048954,106.84874 C258.737696,106.84874 257.686777,107.141197 256.896166,107.726121 C256.105554,108.311045 255.710255,109.079148 255.710255,110.030453 C255.710255,110.814636 255.986643,111.502393 256.539428,112.093745 C257.092213,112.685097 258.133491,113.41142 259.663292,114.272736 L261.707301,115.410439 C264.458371,116.953096 266.354525,118.373604 267.395818,119.672006 C268.437111,120.970409 268.957749,122.551608 268.957749,124.415651 C268.957749,127.063877 267.974321,129.140004 266.007434,130.644094 C264.040547,132.148184 261.328084,132.900218 257.869963,132.900218 C255.581689,132.900218 252.920647,132.578836 249.886756,131.936062 L249.886756,131.936062 Z M281.167698,132.186743 L281.167698,107.562215 L270.947651,107.562215 L270.947651,103.647744 L297.346224,103.647744 L297.346224,107.562215 L287.126178,107.562215 L287.126178,132.186743 L281.167698,132.186743 Z M313.894872,132.900218 C309.562579,132.900218 306.098082,131.537558 303.501277,128.812199 C300.904472,126.08684 299.606089,122.455224 299.606089,117.917243 C299.606089,113.327841 300.9109,109.68337 303.52056,106.983722 C306.13022,104.284073 309.652566,102.934269 314.087703,102.934269 C318.497129,102.934269 322.009833,104.284073 324.625921,106.983722 C327.242009,109.68337 328.550033,113.308558 328.550033,117.859394 C328.550033,122.513074 327.242009,126.183255 324.625921,128.870048 C322.009833,131.556841 318.432852,132.900218 313.894872,132.900218 L313.894872,132.900218 Z M313.972004,128.966464 C316.517387,128.966464 318.532452,127.966966 320.017258,125.967941 C321.502065,123.968915 322.244457,121.259666 322.244457,117.840111 C322.244457,114.5234 321.498851,111.862358 320.007617,109.856905 C318.516382,107.851451 316.543097,106.84874 314.087703,106.84874 C311.606597,106.84874 309.623671,107.851451 308.138864,109.856905 C306.654058,111.862358 305.911665,114.542683 305.911665,117.89796 C305.911665,121.227527 306.650844,123.904638 308.129223,125.929374 C309.607602,127.954111 311.555176,128.966464 313.972004,128.966464 L313.972004,128.966464 Z M333.933761,132.186743 L333.933761,103.647744 L339.641561,103.647744 L339.641561,117.493015 L350.5558,103.647744 L355.492275,103.647744 L345.600041,116.451727 L357.883381,132.186743 L350.459384,132.186743 L339.641561,118.148641 L339.641561,132.186743 L333.933761,132.186743 Z" id="BIAÅYSTOK"></path>
                    <path d="M0.974144794,74 L0.974144794,2.65250315 L15.8221374,2.65250315 L15.8221374,31.6253718 L45.3252915,31.6253718 L45.3252915,2.65250315 L60.1732841,2.65250315 L60.1732841,74 L45.3252915,74 L45.3252915,41.4597565 L15.8221374,41.4597565 L15.8221374,74 L0.974144794,74 Z M70.2004998,74 L97.9681743,2.65250315 L112.816167,2.65250315 L140.583841,74 L125.350187,74 L117.92619,54.9579316 L88.4230362,54.9579316 L80.9990399,74 L70.2004998,74 Z M92.0868266,45.4610013 L114.2624,45.4610013 L103.174613,17.0184181 L92.0868266,45.4610013 Z M208.122925,71.1557417 C201.21311,74.2410543 192.969664,75.7836874 183.392339,75.7836874 C171.693863,75.7836874 162.582685,72.4895229 156.058535,65.901095 C149.534384,59.312667 146.272358,50.1211445 146.272358,38.3262516 C146.272358,26.306388 149.558488,17.0586236 156.130847,10.582681 C162.703205,4.10673844 172.079522,0.868815727 184.260079,0.868815727 C192.037638,0.868815727 199.766873,1.78475416 207.448016,3.61665851 L207.448016,15.2347306 C198.738435,12.1815567 191.443066,10.6549927 185.561689,10.6549927 C178.04124,10.6549927 172.240296,13.0412533 168.158685,17.8138462 C164.077073,22.5864391 162.036298,29.3595628 162.036298,38.1334205 C162.036298,46.7465848 164.22973,53.4634667 168.616659,58.2842676 C173.003587,63.1050685 179.101809,65.5154328 186.911507,65.5154328 C193.917737,65.5154328 200.988139,63.7478323 208.122925,60.2125783 L208.122925,71.1557417 Z M221.042606,74 L221.042606,2.65250315 L235.312106,2.65250315 L235.312106,37.2656807 L262.597703,2.65250315 L274.938891,2.65250315 L250.208306,34.6624612 L280.916654,74 L262.356664,74 L235.312106,38.9047448 L235.312106,74 L221.042606,74 Z M291.136701,74 L291.136701,2.65250315 L305.984694,2.65250315 L305.984694,63.8763687 L338.139275,63.8763687 L338.139275,74 L291.136701,74 Z M340.742495,74 L368.510169,2.65250315 L383.358162,2.65250315 L411.125836,74 L395.892181,74 L388.468185,54.9579316 L358.965031,54.9579316 L351.541035,74 L340.742495,74 Z M362.628821,45.4610013 L384.804395,45.4610013 L373.716608,17.0184181 L362.628821,45.4610013 Z M478.231049,72.3127281 C469.296498,74.6267126 461.583333,75.7836874 455.091321,75.7836874 C442.782209,75.7836874 433.325546,72.5457647 426.721049,66.0698221 C420.116552,59.5938796 416.814353,50.313977 416.814353,38.229836 C416.814353,26.2421111 420.116552,17.0184504 426.721049,10.5585771 C433.325546,4.09870389 442.734002,0.868815727 454.946697,0.868815727 C462.756395,0.868815727 470.501699,1.78475416 478.182842,3.61665851 L478.182842,15.2347306 C469.280429,12.1815567 461.968991,10.6549927 456.248307,10.6549927 C448.695719,10.6549927 442.862637,13.065357 438.748887,17.8861579 C434.635137,22.7069588 432.578293,29.5363243 432.578293,38.3744593 C432.578293,46.9233463 434.779759,53.6321936 439.182757,58.5012025 C443.585755,63.3702115 449.659873,65.8046794 457.405294,65.8046794 C459.108643,65.8046794 461.101211,65.563643 463.383057,65.0815629 L463.383057,41.6043798 L478.231049,41.6043798 L478.231049,72.3127281 Z" id="HACKLAG"></path>
                    <path d="M3.86486486,116.889307 L114.135135,116.889307 L114.135135,122.753055 L3.86486486,122.753055 L3.86486486,116.889307 Z" id="Fill-41"></path>
                    <path d="M365,116.772289 L475.27027,116.772289 L475.27027,122.636037 L365,122.636037 L365,116.772289 Z" id="Fill-41"></path>
                </g>
                <g id="left-eye" transform="translate(213.433962, 181.783553)">
                    <rect id="Rectangle-1" stroke="#979797" fill="#D8D8D8" x="0" y="0" width="15.8490566" height="15.0652961"></rect>
                    <rect id="Rectangle-1" fill="#ED008E" x="0" y="0" width="15.8490566" height="15.0652961"></rect>
                    <rect id="Rectangle-1" fill="#007EC3" x="15.8490566" y="0" width="15.8490566" height="15.0652961"></rect>
                    <rect id="Rectangle-1" fill="#ED1D25" x="31.6981132" y="0" width="15.8490566" height="15.0652961"></rect>
                    <rect id="Rectangle-1" fill="#01A652" x="47.5471698" y="0" width="15.8490566" height="15.0652961"></rect>
                    <rect id="Rectangle-1" fill="#C6178E" x="63.3962264" y="0" width="15.8490566" height="15.0652961"></rect>
                    <rect id="Rectangle-1" stroke="#979797" fill="#D8D8D8" x="15.8490566" y="15.0652961" width="15.8490566" height="15.0652961"></rect>
                    <rect id="Rectangle-1" fill="#E2E319" x="15.8490566" y="15.0652961" width="15.8490566" height="15.0652961"></rect>
                    <rect id="Rectangle-1" fill="#00ADEF" x="31.6981132" y="15.0652961" width="15.8490566" height="15.0652961"></rect>
                    <rect id="Rectangle-1" fill="#F68C1F" x="47.5471698" y="15.0652961" width="15.8490566" height="15.0652961"></rect>
                    <rect id="Rectangle-1" fill="#01AC4E" x="63.3962264" y="15.0652961" width="15.8490566" height="15.0652961"></rect>
                    <rect id="Rectangle-1" fill="#01AC4E" x="0" y="15.0652961" width="15.8490566" height="15.0652961"></rect>
                    <rect id="Rectangle-1" fill="#C6178E" x="0" y="30.1305921" width="15.8490566" height="15.0652961"></rect>
                    <rect id="Rectangle-1" fill="#F47923" x="15.8490566" y="30.1305921" width="15.8490566" height="15.0652961"></rect>
                    <rect id="Rectangle-1" fill="#01A652" x="31.6981132" y="30.1305921" width="15.8490566" height="15.0652961"></rect>
                    <rect id="Rectangle-1" fill="#B5D335" x="47.5471698" y="30.1305921" width="15.8490566" height="15.0652961"></rect>
                    <rect id="Rectangle-1" fill="#0067B3" x="63.3962264" y="30.1305921" width="15.8490566" height="15.0652961"></rect>
                </g>
                <path d="M264.863319,124.926932 L321.557345,124.926932 L321.557345,158.261836 L264.863319,158.261836 L264.863319,124.926932 Z M354.975851,32.2869075 C360.278273,41.5071238 365.960206,76.1053662 319.845962,105.955323 C316.412456,99.8539731 311.768809,94.3089228 306.133419,89.5211577 C318.438905,79.995874 342.49493,59.0287648 354.975851,32.2869075 L354.975851,32.2869075 Z M184.442655,124.926932 L241.136681,124.926932 L241.136681,158.261836 L184.442655,158.261836 L184.442655,124.926932 Z M151.020569,32.2869075 C163.50507,59.0287648 187.561095,79.995874 199.866581,89.5211577 C194.234771,94.3089228 189.587544,99.8503841 186.154038,105.948145 C140.050535,76.0981882 145.732468,41.5035348 151.020569,32.2869075 L151.020569,32.2869075 Z M378.659525,165.396826 L376.013684,164.844116 C373.332041,164.277049 372.061035,161.768317 373.170927,159.263175 L374.87873,155.487516 C375.992203,152.982374 375.222438,151.130435 373.153026,151.378078 C371.072873,151.611365 367.915049,153.509961 366.114159,155.591598 L360.679266,161.843687 C360.679266,161.843687 341.53183,176.774049 299.083812,177.136541 C303.347947,174.340687 307.22183,171.171574 310.623113,167.686627 L321.557345,167.686627 C326.748778,167.686627 330.955628,163.45875 330.955628,158.261836 L330.955628,124.926932 C330.955628,120.638042 328.077068,117.05619 324.160222,115.922057 C323.916762,115.13606 323.698363,114.339295 323.4191,113.571243 C391.663169,67.7213938 361.642366,11.5351402 349.383424,0 C343.09642,21.4265049 311.443002,56.7389641 289.789357,79.0878496 C278.962534,73.991428 266.420749,71.0268898 253.00537,71.0268898 C239.582832,71.0268898 227.041046,73.991428 216.210643,79.0878496 C194.560579,56.7389641 162.91432,21.4265049 156.623736,0 C144.357634,11.5351402 114.340411,67.7178048 182.58448,113.567654 C182.298056,114.335706 182.083238,115.13606 181.836198,115.922057 C177.922932,117.05978 175.044372,120.638042 175.044372,124.926932 L175.044372,158.261836 C175.044372,163.45875 179.251222,167.686627 184.442655,167.686627 L195.376887,167.686627 C198.78175,171.171574 202.655633,174.340687 206.916188,177.136541 C164.47175,176.777638 145.317154,161.843687 145.317154,161.843687 L139.882261,155.591598 C138.084951,153.509961 134.930708,151.611365 132.846974,151.378078 C130.781142,151.130435 130.011378,152.982374 131.12127,155.487516 L132.825492,159.263175 C133.938965,161.768317 132.667959,164.277049 129.986316,164.844116 L127.340475,165.396826 C127.340475,165.396826 35.244458,181.716142 0,220.714535 C0,220.714535 29.498079,220.721713 30.5435261,248.723319 C30.5435261,248.723319 90.595872,228.301743 132.882777,269.916537 C132.882777,269.916537 195.595285,243.540761 252.99821,319.534867 C310.404715,243.540761 373.110062,269.916537 373.110062,269.916537 C415.404128,228.301743 475.456474,248.723319 475.456474,248.723319 C476.501921,220.721713 506,220.714535 506,220.714535 C470.751962,181.716142 378.659525,165.396826 378.659525,165.396826 Z M283.011852,200.763121 C278.955374,196.865435 258.622859,208.97482 254.874286,211.261031 C254.301438,211.106703 253.678467,211.020567 252.99821,211.020567 C252.325114,211.020567 251.691401,211.106703 251.129294,211.261031 C247.377141,208.97482 227.037466,196.865435 222.991729,200.763121 C218.527096,205.059189 219.490197,230.903789 231.559383,225.602793 C239.883577,221.95275 248.956053,218.234515 251.959923,215.219731 C252.296471,215.269977 252.6366,215.302278 252.99821,215.302278 C253.35982,215.302278 253.707109,215.269977 254.036496,215.219731 C257.051108,218.234515 266.102102,221.95275 274.433457,225.602793 C286.509803,230.903789 287.472904,205.059189 283.011852,200.763121 Z" id="HackBat" fill="#212121"></path>
            </g>
        </g>
    </g>
</svg>