<?xml version="1.0" encoding="UTF-8" standalone="no"?>
<svg width="118px" height="83px" viewBox="0 0 118 83" version="1.1" xmlns="http://www.w3.org/2000/svg" xmlns:xlink="http://www.w3.org/1999/xlink">
    <!-- Generator: Sketch 3.6.1 (26313) - http://www.bohemiancoding.com/sketch -->
    <title>HackBat Cloud</title>
    <desc>Created with Sketch.</desc>
    <defs></defs>
    <g id="Logos" stroke="none" stroke-width="1" fill="none" fill-rule="evenodd">
        <g id="HackBat-cloud" transform="translate(-197.000000, -215.000000)">
            <g id="HackBat-Cloud" transform="translate(197.000000, 215.000000)">
                <path d="M14.979783,57.6603436 C31.1888836,67.40143 46.3674114,68.5391518 58.8547628,68.5391518 L74.8093009,68.5391518 C86.7752044,68.5391518 104.72406,82.6816045 104.72406,82.6816045 L94.7524735,64.1876278 C94.7524735,64.1876278 105.022824,61.3724218 110.707012,54.396699 C116.489309,47.3005735 117.687122,36.0182259 117.687122,33.18302 C117.687122,23.9806636 97.7439494,13.0572215 97.7439494,13.0572215 C97.7439494,13.0572215 76.0343201,0.00265019176 58.8547628,0.00265019176 C46.6347131,0.00265019176 31.131647,-0.366779208 16.9741003,7.61781703 C2.81655361,15.6024133 0.0224035652,21.000178 0.0224035652,33.18302 C0.0224035652,45.2052233 -1.22931757,47.9192572 14.979783,57.6603436 Z" id="Oval-1" fill="#212121"></path>
                <path d="M12.0147688,27.3887278 L12.3068024,27.3887278 C12.5715808,27.521117 12.703968,27.6768667 12.703968,27.8559815 C12.703968,29.3278379 12.672818,30.4648105 12.6105172,31.2669333 L12.703968,36.0679649 C12.7662688,36.1769913 12.7974187,36.2821223 12.7974187,36.3833611 C12.7195427,36.6169891 12.6922865,36.7338014 12.7156493,36.7338014 C12.7701625,38.026543 12.8129937,40.4912815 12.8441441,44.1280908 C12.8129937,44.2994181 12.7974187,44.6420673 12.7974187,45.1560489 L12.4703411,45.3779944 L12.1082195,45.3779944 L11.7460979,45.0976422 C11.7460979,44.692687 11.7616729,44.3928689 11.7928233,44.1981789 C11.7616729,39.9461492 11.7188417,37.4775169 11.6643285,36.7922081 C10.4261001,36.8155709 9.79531395,36.8311459 9.77195115,36.8389335 C9.82646435,37.3139771 9.85372054,37.8396322 9.85372054,38.4159146 C9.85372054,39.6619307 9.83814557,40.7521783 9.80699517,41.6866904 C9.83814557,42.2162472 9.85372054,43.2831324 9.85372054,44.8873781 C9.62009253,45.0275549 9.42929919,45.0976422 9.28133478,45.0976422 C9.11000758,45.0976422 8.95036417,44.9730425 8.80239976,44.7238393 L8.80239976,44.2565856 C8.80239976,42.9872068 8.7868248,42.1305836 8.7556744,41.6866904 C8.7868248,40.9235056 8.80239976,39.9890075 8.80239976,38.8831683 L8.80239976,38.1822878 C8.70894856,36.6637057 8.66222366,35.604608 8.66222366,35.0049628 C8.75567486,31.5316931 8.80239976,29.3278352 8.80239976,28.3933232 C8.77124936,28.2687216 8.7556744,28.1168657 8.7556744,27.9377509 L9.117796,27.66908 L9.42151089,27.66908 C9.7096521,27.8404072 9.85372054,28.0428818 9.85372054,28.2765098 C9.85372054,28.8605798 9.80699564,31.1968248 9.71354444,35.285315 L9.71354444,36.0796462 L9.63177504,35.9161074 C9.68628824,35.9005322 10.3560118,35.8810635 11.6409659,35.8577007 C11.6176031,34.8764631 11.6059218,34.1405459 11.6059218,33.6499271 L11.6059218,31.5005602 C11.6059218,31.4616222 11.5825594,31.4032161 11.5358338,31.3253401 L11.6059218,31.1734826 C11.6370722,29.7094138 11.6526472,28.5373975 11.6526472,27.6573987 L12.0147688,27.3887278 Z M16.6639429,28.7788075 L16.8508444,28.7788075 C17.2635872,28.7788075 17.4699555,29.6821556 17.4699555,31.4888788 L17.4699555,32.0963086 C17.4699555,32.711529 17.3765057,34.2884944 17.1896033,36.8272521 C17.1896033,36.9284909 17.2051783,37.0414094 17.2363287,37.166011 C17.2051783,38.8091947 17.1896033,40.1097044 17.1896033,41.0675793 L17.1896033,44.1047282 C17.1896033,44.1514538 17.2207532,44.3033097 17.283054,44.5603005 C17.2207532,44.9418929 17.0611098,45.1326863 16.804119,45.1326863 L16.6172175,45.1326863 C16.2979259,45.1326863 16.1382825,44.6342873 16.1382825,43.6374745 C16.1382825,38.2250923 16.2317323,34.4987815 16.4186347,32.4584302 L16.4186347,31.1618013 C16.4186347,30.445342 16.3719098,29.7950872 16.2784586,29.2110172 C16.2784586,29.0786279 16.4069521,28.9345595 16.6639429,28.7788075 L16.6639429,28.7788075 Z M21.5467439,27.9143882 C21.7102835,27.9143882 21.8738206,28.0428817 22.0373602,28.2998725 L21.9789535,28.5685433 C22.5708111,32.0106627 22.8667355,34.7051319 22.8667355,36.652032 C22.8667355,37.2906152 22.8823105,38.9454554 22.9134609,41.6166023 L22.5863833,41.8385478 L22.2943497,41.8385478 C22.1152349,41.7918222 21.9711665,41.6477538 21.8621401,41.4063382 C21.8309897,39.1323589 21.8154147,37.45805 21.8154147,36.3833611 L21.7686893,35.76425 C21.7998397,35.7097368 21.8154147,35.6630119 21.8154147,35.6240739 C21.8154147,34.7596503 21.5194903,32.3649991 20.9276327,28.4400486 C20.9276327,28.0896066 21.134001,27.9143882 21.5467439,27.9143882 L21.5467439,27.9143882 Z M22.165855,43.6141118 C22.633111,43.6141118 22.8667355,43.8049051 22.8667355,44.1864976 C22.7888595,44.7082668 22.5279788,44.9691475 22.0840856,44.9691475 C21.7180684,44.8133955 21.5350625,44.5953459 21.5350625,44.3149923 C21.5350625,44.0502139 21.7453246,43.8165894 22.165855,43.6141118 L22.165855,43.6141118 Z M32.7491508,28.7788075 L32.9360523,28.7788075 C33.3487951,28.7788075 33.5551634,29.6821556 33.5551634,31.4888788 L33.5551634,32.0963086 C33.5551634,32.711529 33.4617136,34.2884944 33.2748112,36.8272521 C33.2748112,36.9284909 33.2903862,37.0414094 33.3215366,37.166011 C33.2903862,38.8091947 33.2748112,40.1097044 33.2748112,41.0675793 L33.2748112,44.1047282 C33.2748112,44.1514538 33.3059611,44.3033097 33.3682619,44.5603005 C33.3059611,44.9418929 33.1463177,45.1326863 32.8893269,45.1326863 L32.7024254,45.1326863 C32.3831338,45.1326863 32.2234904,44.6342873 32.2234904,43.6374745 C32.2234904,38.2250923 32.3169402,34.4987815 32.5038426,32.4584302 L32.5038426,31.1618013 C32.5038426,30.445342 32.4571177,29.7950872 32.3636665,29.2110172 C32.3636665,29.0786279 32.49216,28.9345595 32.7491508,28.7788075 L32.7491508,28.7788075 Z M37.4333689,28.6970381 L37.6669958,28.6970381 C37.838323,28.6970381 38.0018601,28.8255316 38.1576121,29.0825224 C37.8071701,30.6634052 37.491777,31.738078 37.2114234,32.3065728 L36.9544339,32.4350675 L36.7792138,32.4350675 C36.6156742,32.4350675 36.452137,32.3026803 36.2885974,32.0379019 C36.5845262,31.0566643 36.8609819,30.0092478 37.1179727,28.8956209 L37.4333689,28.6970381 Z M40.7975954,28.4517299 C41.1636126,28.5685439 42.2460728,31.0722199 44.0450085,35.9628328 L43.6595242,35.9628328 C43.6595242,35.7603552 44.4538475,33.3540228 46.042518,28.7437635 L46.6032224,28.7437635 L46.8134865,29.1526104 L46.8251679,29.6665895 C46.7395043,32.4545504 46.6966731,34.8102641 46.6966731,36.7338014 C46.6966731,37.4736234 46.8368478,40.1914551 47.1172014,44.8873781 L46.6149037,45.1326863 C46.1943733,45.1326863 45.8906614,42.5160918 45.703759,37.2828245 L45.703759,31.8042751 L46.0892433,31.8042751 C44.9834041,35.2386068 44.3097868,37.0530904 44.0683712,37.2477804 C43.5699648,37.21663 42.6004231,35.1724156 41.159717,31.1150759 L41.5218386,31.1150759 L41.5218386,31.0216252 L42.2110378,44.6070259 L41.7321028,44.8640154 C41.2959972,44.8640154 41.0779476,44.6926908 41.0779476,44.3500363 C40.8053816,36.2119941 40.528926,31.0060614 40.2485723,28.7320821 L40.7975954,28.4517299 Z M58.4948285,27.3887278 L58.786862,27.3887278 C59.0516405,27.521117 59.1840277,27.6768667 59.1840277,27.8559815 C59.1840277,29.3278379 59.1528777,30.4648105 59.0905769,31.2669333 L59.1840277,36.0679649 C59.2463285,36.1769913 59.2774784,36.2821223 59.2774784,36.3833611 C59.1996024,36.6169891 59.1723462,36.7338014 59.195709,36.7338014 C59.2502222,38.026543 59.2930534,40.4912815 59.3242038,44.1280908 C59.2930534,44.2994181 59.2774784,44.6420673 59.2774784,45.1560489 L58.9504008,45.3779944 L58.5882792,45.3779944 L58.2261576,45.0976422 C58.2261576,44.692687 58.2417326,44.3928689 58.272883,44.1981789 C58.2417326,39.9461492 58.1989014,37.4775169 58.1443882,36.7922081 C56.9061598,36.8155709 56.2753736,36.8311459 56.2520108,36.8389335 C56.306524,37.3139771 56.3337802,37.8396322 56.3337802,38.4159146 C56.3337802,39.6619307 56.3182053,40.7521783 56.2870549,41.6866904 C56.3182053,42.2162472 56.3337802,43.2831324 56.3337802,44.8873781 C56.1001522,45.0275549 55.9093589,45.0976422 55.7613945,45.0976422 C55.5900673,45.0976422 55.4304239,44.9730425 55.2824595,44.7238393 L55.2824595,44.2565856 C55.2824595,42.9872068 55.2668845,42.1305836 55.2357341,41.6866904 C55.2668845,40.9235056 55.2824595,39.9890075 55.2824595,38.8831683 L55.2824595,38.1822878 C55.1890083,36.6637057 55.1422834,35.604608 55.1422834,35.0049628 C55.2357346,31.5316931 55.2824595,29.3278352 55.2824595,28.3933232 C55.2513091,28.2687216 55.2357341,28.1168657 55.2357341,27.9377509 L55.5978557,27.66908 L55.9015706,27.66908 C56.1897118,27.8404072 56.3337802,28.0428818 56.3337802,28.2765098 C56.3337802,28.8605798 56.2870553,31.1968248 56.1936041,35.285315 L56.1936041,36.0796462 L56.1118347,35.9161074 C56.1663479,35.9005322 56.8360715,35.8810635 58.1210256,35.8577007 C58.0976628,34.8764631 58.0859815,34.1405459 58.0859815,33.6499271 L58.0859815,31.5005602 C58.0859815,31.4616222 58.0626191,31.4032161 58.0158935,31.3253401 L58.0859815,31.1734826 C58.1171319,29.7094138 58.1327069,28.5373975 58.1327069,27.6573987 L58.4948285,27.3887278 Z M63.8215204,28.7204008 L63.9383339,28.7204008 C64.4990411,28.9773916 64.9468214,29.5848153 65.2816882,30.5426901 C66.1538994,33.2371998 66.7963668,36.67148 67.2091096,40.8456338 C67.4816756,42.2006762 67.6179566,43.4077361 67.6179566,44.4668498 C67.5245054,44.7004778 67.2558372,44.81729 66.811944,44.81729 C66.6250416,44.4590604 66.406992,43.1546569 66.1577888,40.9040405 C66.0877004,40.6626249 65.9397382,39.6852957 65.7138978,37.9720236 L65.6087658,37.9603423 C64.1291217,38.1005191 63.3893108,38.1939689 63.3893108,38.2406945 L63.3893108,40.0629838 L63.0739146,44.338355 C63.144003,44.4395938 63.1790466,44.5564061 63.1790466,44.6887953 C63.1790466,44.8211845 63.0427657,44.9691467 62.7701997,45.1326863 C62.2406428,45.1326863 61.9758684,44.879593 61.9758684,44.373399 C62.217284,41.0870317 62.33799,39.1167984 62.33799,38.46264 C62.3068396,38.034322 62.2912646,37.5982229 62.2912646,37.1543297 C62.3068398,34.9037132 62.4937394,32.5207433 62.8519691,30.0053484 C63.0310839,29.1487124 63.3542644,28.7204008 63.8215204,28.7204008 L63.8215204,28.7204008 Z M64.0317846,29.923579 C63.634617,31.4499487 63.4360362,33.6654877 63.4360362,36.5702626 C63.4048858,36.5702626 63.3893108,36.8700807 63.3893108,37.4697259 L63.3893108,37.2945058 C64.144708,37.0842406 64.8962002,36.9791096 65.6438098,36.9791096 L65.6438098,37.1543297 C65.6438098,36.2198177 65.1298359,33.9887037 64.1018726,30.4609207 C63.9071826,30.0403903 63.8838202,29.8612782 64.0317846,29.923579 L64.0317846,29.923579 Z M73.3301328,28.8255329 L73.6922544,28.8255329 C74.4242888,28.9579221 74.7903005,29.2382715 74.7903005,29.6665895 C74.7903005,29.7911911 74.6618071,29.9313658 74.4048163,30.0871178 L73.9726066,30.0871178 C73.770129,29.8379146 73.6221668,29.7133149 73.5287156,29.7133149 C72.9057076,29.9313677 72.5942083,30.1182673 72.5942083,30.2740193 C71.9712002,31.4577345 71.6597009,33.0619561 71.6597009,35.0867322 L71.6597009,35.8810634 C71.6597009,37.2594687 71.8466005,38.9143089 72.2204053,40.8456338 C72.4384581,42.2396142 72.7304887,43.1702185 73.096506,43.6374745 C73.5092488,43.9957041 73.8557918,44.1826037 74.1361454,44.1981789 C74.4787998,44.1981789 74.9187926,43.8555296 75.456137,43.1702208 L75.7598519,43.1702208 C75.9389667,43.1702208 76.0830352,43.2792456 76.1920616,43.4972984 L76.1920616,43.6374745 C76.1920616,43.9957041 75.8065812,44.4201219 75.0356087,44.9107408 C74.6851667,45.0587052 74.3658799,45.1326863 74.0777387,45.1326863 L74.0076506,45.1326863 C73.4703062,45.0703855 72.9251824,44.7978235 72.3722628,44.3149923 C71.7726175,43.8399487 71.2625374,42.0215713 70.842007,38.8598056 C70.686255,38.1822844 70.6083801,37.0647805 70.6083801,35.5072605 L70.6083801,35.2269083 C70.6628933,32.0028418 71.2158046,29.993671 72.2671307,29.1993358 C72.7888999,28.9501326 73.1432304,28.8255329 73.3301328,28.8255329 L73.3301328,28.8255329 Z M81.3201707,28.0312016 C81.7173383,28.0312016 81.962644,28.1596951 82.0560953,28.4166859 L82.0560953,28.6853568 C82.0560953,30.0715496 81.7445959,31.9093957 81.1215879,34.1989502 C80.9969863,34.7985954 80.7555743,35.7642433 80.3973447,37.095923 C80.7633619,37.095923 81.5148541,38.633951 82.6518437,41.7100531 C82.9166221,42.4966007 83.1385654,43.4622486 83.3176802,44.6070259 L83.3176802,44.7588833 C83.3176802,44.8912725 83.2008679,45.0158723 82.9672399,45.1326863 L82.663525,45.1326863 C82.3675962,44.9847219 82.219634,44.7822473 82.219634,44.5252565 L82.219634,44.4785311 C82.219634,44.2916287 82.2157403,44.1981789 82.2079527,44.1981789 C81.8497231,42.5160572 81.4369865,41.1843976 80.9697304,40.2031599 C80.3311472,38.6923655 79.9962854,37.9369796 79.965135,37.9369796 L80.3856633,44.9107408 L80.0469044,45.1326863 L79.7548709,45.1326863 C79.6069065,45.1326863 79.4316881,44.9964053 79.2292105,44.7238393 L79.2292105,44.6187072 C79.2292105,44.5018932 79.2603604,44.3928684 79.3226612,44.2916296 C79.03452,39.2608399 78.7697456,35.6396601 78.52833,33.4279816 C78.0922244,30.9437371 77.8741748,29.362878 77.8741748,28.6853568 L77.8741748,28.5451807 C77.8741748,28.4205791 78.0026683,28.2804044 78.2596591,28.1246524 L78.4465606,28.1246524 C78.6101002,28.1246524 78.7697436,28.2453583 78.9254956,28.486774 L78.9254956,28.7671262 C79.0189468,29.6549126 79.2992962,31.7536394 79.7665522,35.0633695 C79.8600034,36.1458459 79.9067283,36.6987572 79.9067283,36.72212 L79.4277933,36.72212 C80.4791193,32.6492051 81.0047745,30.1572104 81.0047745,29.2460612 L81.0047745,28.7788075 C81.0047745,28.7554447 80.9853058,28.599695 80.9463678,28.3115538 L81.3201707,28.0312016 Z M87.067391,27.6573987 C88.2121682,27.6573987 88.9013605,28.7437526 89.1349885,30.9164931 L89.1349885,31.8276378 C88.9792365,32.9568398 88.4535813,34.1833684 87.5580073,35.5072605 C87.5268569,35.5150481 87.4606633,35.5851354 87.3594245,35.7175246 L87.3594245,35.5423045 C87.9434945,35.7603573 88.4496809,36.2276063 88.877999,36.9440655 C89.306317,37.5826488 89.5944539,38.5638717 89.7424183,39.8877637 C89.7424183,41.5465226 89.3880878,42.9599508 88.6794161,44.1280908 C88.1810097,44.6732229 87.6748233,45.0080847 87.1608417,45.1326863 L87.0206656,45.1326863 C86.38987,45.1326863 86.0744769,44.5291563 86.0744769,43.3220783 C85.7006721,37.9564217 85.5137725,33.8290555 85.5137725,30.9398558 C85.4514717,30.1065825 85.3541281,29.2811093 85.2217389,28.4634113 C85.8681097,27.9260669 86.4833209,27.6573987 87.067391,27.6573987 L87.067391,27.6573987 Z M86.3431478,28.8488956 C86.5845634,30.7334948 86.7052694,33.4785827 86.7052694,37.0842416 C86.829871,38.5483105 86.9856206,40.907918 87.172523,44.1631349 L87.1491603,44.1397722 C87.585266,43.9606574 87.916234,43.5712832 88.1420744,42.971638 C88.5080916,41.9436748 88.6910975,40.9235144 88.6910975,39.9111264 C88.4652571,38.5638716 88.286145,37.8902542 88.1537558,37.8902542 C87.9279154,37.2205206 87.5034975,36.7065467 86.8804895,36.3483171 C86.5611979,36.3483171 86.3081047,36.1925674 86.1212023,35.8810634 L86.1212023,35.6240739 C87.1413779,34.4792967 87.7955265,33.2332993 88.0836677,31.8860445 L88.0836677,31.1734826 C87.9434909,29.4524229 87.6047354,28.591906 87.067391,28.591906 C86.7714621,28.591906 86.5300502,28.6775683 86.3431478,28.8488956 L86.3431478,28.8488956 Z M94.2280536,28.7204008 L94.344867,28.7204008 C94.9055742,28.9773916 95.3533545,29.5848153 95.6882213,30.5426901 C96.5604326,33.2371998 97.2028999,36.67148 97.6156428,40.8456338 C97.8882088,42.2006762 98.0244897,43.4077361 98.0244897,44.4668498 C97.9310385,44.7004778 97.6623703,44.81729 97.2184771,44.81729 C97.0315747,44.4590604 96.8135252,43.1546569 96.564322,40.9040405 C96.4942336,40.6626249 96.3462714,39.6852957 96.120431,37.9720236 L96.0152989,37.9603423 C94.5356549,38.1005191 93.7958439,38.1939689 93.7958439,38.2406945 L93.7958439,40.0629838 L93.4804477,44.338355 C93.5505361,44.4395938 93.5855798,44.5564061 93.5855798,44.6887953 C93.5855798,44.8211845 93.4492988,44.9691467 93.1767328,45.1326863 C92.647176,45.1326863 92.3824016,44.879593 92.3824016,44.373399 C92.6238172,41.0870317 92.7445232,39.1167984 92.7445232,38.46264 C92.7133728,38.034322 92.6977978,37.5982229 92.6977978,37.1543297 C92.713373,34.9037132 92.9002726,32.5207433 93.2585022,30.0053484 C93.437617,29.1487124 93.7607976,28.7204008 94.2280536,28.7204008 L94.2280536,28.7204008 Z M94.4383177,29.923579 C94.0411501,31.4499487 93.8425693,33.6654877 93.8425693,36.5702626 C93.8114189,36.5702626 93.7958439,36.8700807 93.7958439,37.4697259 L93.7958439,37.2945058 C94.5512412,37.0842406 95.3027333,36.9791096 96.0503429,36.9791096 L96.0503429,37.1543297 C96.0503429,36.2198177 95.536369,33.9887037 94.5084058,30.4609207 C94.3137158,30.0403903 94.2903533,29.8612782 94.4383177,29.923579 L94.4383177,29.923579 Z M105.827626,29.4329627 L106.131341,29.7834029 L106.131341,29.9703044 C106.131341,30.2584456 105.597898,30.402514 104.530997,30.402514 L103.222687,30.402514 C103.316138,30.402514 103.366757,30.3908328 103.374544,30.36747 L103.467995,32.4817929 C103.436845,32.6764829 103.42127,32.7816139 103.42127,32.7971891 C103.701623,37.5086873 103.841798,40.8689864 103.841798,42.8781873 C103.872948,42.9327005 103.888523,43.0105753 103.888523,43.1118141 C103.857373,43.1585397 103.841798,43.1741147 103.841798,43.1585395 L103.900205,43.4739357 C103.791178,43.7231389 103.643216,43.8477386 103.456314,43.8477386 L103.269412,43.8477386 C103.137023,43.8477386 102.97738,43.7387139 102.790477,43.5206611 C102.790477,43.4116347 102.806052,43.2364163 102.837203,42.9950007 C102.837203,42.3330547 102.697028,38.9727556 102.416674,32.9140026 C102.416674,31.9327649 102.389418,31.0761417 102.334905,30.3441073 L102.440037,30.402514 L102.393312,30.402514 L100.757924,30.5426901 C100.555446,30.3246373 100.454209,30.1221628 100.454209,29.9352604 C100.454209,29.8028712 100.602171,29.6626964 100.8981,29.514732 C101.170666,29.5848204 101.303053,29.6198641 101.295265,29.6198641 C101.894911,29.5653509 102.319329,29.5380947 102.568532,29.5380947 L104.484272,29.5380947 C104.865864,29.5380947 105.313645,29.5030511 105.827626,29.4329627 L105.827626,29.4329627 Z" id="Hi!-I’m-HackBat" fill="#FFFFFF"></path>
            </g>
        </g>
    </g>
</svg>