<?xml version="1.0" encoding="UTF-8" standalone="no"?>
<!-- Created with Inkscape (http://www.inkscape.org/) -->

<svg
   xmlns:dc="http://purl.org/dc/elements/1.1/"
   xmlns:cc="http://creativecommons.org/ns#"
   xmlns:rdf="http://www.w3.org/1999/02/22-rdf-syntax-ns#"
   xmlns:svg="http://www.w3.org/2000/svg"
   xmlns="http://www.w3.org/2000/svg"
   version="1.1"
   width="744.09448"
   height="1052.3622"
   id="svg2">
  <defs
     id="defs4">
    <clipPath
       id="clipPath3001">
      <path
         d="m 0,1024 1024,0 L 1024,0 0,0 0,1024 z"
         id="path3003" />
    </clipPath>
  </defs>
  <metadata
     id="metadata7">
    <rdf:RDF>
      <cc:Work
         rdf:about="">
        <dc:format>image/svg+xml</dc:format>
        <dc:type
           rdf:resource="http://purl.org/dc/dcmitype/StillImage" />
        <dc:title></dc:title>
      </cc:Work>
    </rdf:RDF>
  </metadata>
  <g
     id="layer1">
    <g
       transform="matrix(1.25,0,0,-1.25,-265,1170.8297)"
       id="g2993">
      <path
         d="m 13.842,0 996.316,0 0,1021.548 -996.316,0 L 13.842,0 z"
         id="path2995"
         style="fill:#ffffff;fill-opacity:1;fill-rule:nonzero;stroke:none" />
      <g
         id="g2997">
        <g
           clip-path="url(#clipPath3001)"
           id="g2999">
          <g
             transform="translate(308.3058,318.7552)"
             id="g3005">
            <path
               d="m 0,0 c 7.847,0 14.595,4.866 17.264,8.787 l 0,12.399 c -1.884,1.099 -6.278,2.511 -13.183,2.511 -8.789,0 -15.067,-4.393 -15.067,-12.556 C -10.986,4.866 -6.748,0 0,0 m 4.081,32.014 c 6.748,0 13.341,-2.039 13.341,-2.039 0.155,11.614 -1.257,16.95 -10.202,16.95 -8.632,0 -16.007,-2.355 -18.834,-3.452 -1.569,-0.63 -2.509,0.155 -2.981,1.57 l -1.255,3.921 c -0.627,1.884 0.313,2.827 1.727,3.454 0.94,0.47 10.044,4.081 21.813,4.081 16.01,0 19.933,-8.162 19.933,-26.524 l 0,-34.841 c 0,-1.569 -1.414,-2.981 -2.984,-2.981 l -2.981,0 c -1.727,0 -2.197,0.942 -2.667,2.354 l -1.257,4.236 c -3.294,-3.294 -9.729,-8.16 -19.461,-8.16 -10.984,0 -19.304,8.005 -19.304,20.558 0,11.929 8.947,20.873 25.112,20.873"
               id="path3007"
               style="fill:#000000;fill-opacity:1;fill-rule:nonzero;stroke:none" />
          </g>
          <g
             transform="translate(432.9975,348.4154)"
             id="g3009">
            <path
               d="M 0,0 C -0.47,9.105 -8.005,17.264 -17.577,17.264 -28.093,17.264 -36.253,9.732 -37.353,0 L 0,0 z m -17.577,26.839 c 16.477,0 28.406,-12.241 28.406,-28.721 0,-1.1 -0.157,-3.139 -0.315,-4.238 C 10.357,-7.69 9.102,-8.787 7.69,-8.787 l -45.2,0 c 0.63,-10.517 9.889,-20.403 21.03,-20.403 6.593,0 11.929,2.511 15.538,4.708 2.197,1.257 3.139,2.039 4.393,0.315 0.943,-1.257 1.727,-2.354 2.67,-3.611 1.099,-1.412 1.726,-2.355 -0.628,-4.079 -3.766,-2.982 -12.241,-7.22 -23.07,-7.22 -18.991,0 -30.762,14.91 -30.762,32.957 0,17.734 11.771,32.959 30.762,32.959"
               id="path3011"
               style="fill:#000000;fill-opacity:1;fill-rule:nonzero;stroke:none" />
          </g>
          <g
             transform="translate(506.196,342.9247)"
             id="g3013">
            <path
               d="m 0,0 -19.931,26.679 c -1.569,2.039 -0.63,4.081 2.039,4.081 l 6.593,0 c 1.097,0 2.04,-0.627 2.509,-1.257 L 6.12,8.16 l 0.158,0 15.537,21.343 c 0.47,0.63 1.412,1.257 2.51,1.257 l 6.592,0 c 2.667,0 3.609,-2.042 2.04,-4.081 L 13.026,0.155 33.114,-27.936 c 1.412,-2.042 0.47,-4.081 -2.039,-4.081 l -5.808,0 c -0.942,0 -1.882,0.785 -2.355,1.412 l -16.634,23.07 -0.158,0 -16.322,-23.227 c -0.47,-0.628 -1.412,-1.255 -2.511,-1.255 l -5.806,0 c -2.669,0 -3.454,2.039 -2.042,4.081 L 0,0 z"
               id="path3015"
               style="fill:#000000;fill-opacity:1;fill-rule:nonzero;stroke:none" />
          </g>
          <g
             transform="translate(612.1312,319.5399)"
             id="g3017">
            <path
               d="M 0,0 C 11.456,0 20.403,10.202 20.403,22.913 20.403,35.311 11.456,45.355 0,45.355 -11.456,45.355 -20.403,35.311 -20.403,22.913 -20.403,10.202 -11.456,0 0,0 m 0,55.714 c 17.422,0 31.232,-15.067 31.232,-32.801 0,-18.047 -13.81,-33.115 -31.232,-33.115 -17.419,0 -31.232,15.068 -31.232,33.115 0,17.734 13.813,32.801 31.232,32.801"
               id="path3019"
               style="fill:#000000;fill-opacity:1;fill-rule:nonzero;stroke:none" />
          </g>
          <g
             transform="translate(692.4699,372.5733)"
             id="g3021">
            <path
               d="m 0,0 c 0,1.569 1.415,2.982 2.984,2.982 l 4.863,0 c 1.57,0 2.982,-1.413 2.982,-2.982 l 0,-58.684 c 0,-1.57 -1.412,-2.982 -2.982,-2.982 l -4.863,0 C 1.415,-61.666 0,-60.254 0,-58.684 L 0,0 z"
               id="path3023"
               style="fill:#000000;fill-opacity:1;fill-rule:nonzero;stroke:none" />
          </g>
          <g
             transform="translate(695.5202,309.7727)"
             id="g3025">
            <path
               d="m 0,0 c -1.57,0 -2.982,1.415 -2.982,2.984 l 0,4.863 c 0,1.57 1.412,2.982 2.982,2.982 l 29.68,0 c 1.57,0 2.982,-1.412 2.982,-2.982 l 0,-4.863 C 32.662,1.415 31.25,0 29.68,0 L 0,0 z"
               id="path3027"
               style="fill:#000000;fill-opacity:1;fill-rule:nonzero;stroke:none" />
          </g>
          <path
             d="m 604.167,554.647 -15.518,0 0,14.261 15.518,0 0,-14.261 z m -24.249,-9.988 32.98,0 0,32.98 -32.98,0 0,-32.98 z"
             id="path3029"
             style="fill:#000000;fill-opacity:1;fill-rule:nonzero;stroke:none" />
          <path
             d="m 425.914,613.718 -15.915,0 0,14.626 15.915,0 0,-14.626 z m -24.87,-10.244 33.825,0 0,33.825 -33.825,0 0,-33.825 z"
             id="path3031"
             style="fill:#000000;fill-opacity:1;fill-rule:nonzero;stroke:none" />
          <path
             d="m 255.667,425.161 -33.825,0 0,33.825 33.825,0 0,-33.825 z"
             id="path3033"
             style="fill:#000000;fill-opacity:1;fill-rule:nonzero;stroke:none" />
          <path
             d="m 315.401,425.161 -33.825,0 0,33.825 33.825,0 0,-33.825 z"
             id="path3035"
             style="fill:#000000;fill-opacity:1;fill-rule:nonzero;stroke:none" />
          <path
             d="m 375.135,425.161 -33.825,0 0,33.825 33.825,0 0,-33.825 z"
             id="path3037"
             style="fill:#000000;fill-opacity:1;fill-rule:nonzero;stroke:none" />
          <path
             d="m 434.869,425.161 -33.825,0 0,33.825 33.825,0 0,-33.825 z"
             id="path3039"
             style="fill:#000000;fill-opacity:1;fill-rule:nonzero;stroke:none" />
          <path
             d="m 554.337,425.161 -33.825,0 0,33.825 33.825,0 0,-33.825 z"
             id="path3041"
             style="fill:#000000;fill-opacity:1;fill-rule:nonzero;stroke:none" />
          <path
             d="m 614.071,425.161 -33.825,0 0,33.825 33.825,0 0,-33.825 z"
             id="path3043"
             style="fill:#000000;fill-opacity:1;fill-rule:nonzero;stroke:none" />
          <path
             d="m 614.071,214.806 -33.825,0 0,33.825 33.825,0 0,-33.825 z"
             id="path3045"
             style="fill:#000000;fill-opacity:1;fill-rule:nonzero;stroke:none" />
          <path
             d="m 673.805,425.161 -33.825,0 0,33.825 33.825,0 0,-33.825 z"
             id="path3047"
             style="fill:#000000;fill-opacity:1;fill-rule:nonzero;stroke:none" />
          <path
             d="m 733.539,425.161 -33.825,0 0,33.825 33.825,0 0,-33.825 z"
             id="path3049"
             style="fill:#000000;fill-opacity:1;fill-rule:nonzero;stroke:none" />
          <path
             d="m 793.272,425.161 -33.825,0 0,33.825 33.825,0 0,-33.825 z"
             id="path3051"
             style="fill:#000000;fill-opacity:1;fill-rule:nonzero;stroke:none" />
          <path
             d="m 255.667,483.971 -33.825,0 0,33.825 33.825,0 0,-33.825 z"
             id="path3053"
             style="fill:#000000;fill-opacity:1;fill-rule:nonzero;stroke:none" />
          <path
             d="m 315.401,483.971 -33.825,0 0,33.825 33.825,0 0,-33.825 z"
             id="path3055"
             style="fill:#000000;fill-opacity:1;fill-rule:nonzero;stroke:none" />
          <path
             d="m 375.135,483.971 -33.825,0 0,33.825 33.825,0 0,-33.825 z"
             id="path3057"
             style="fill:#000000;fill-opacity:1;fill-rule:nonzero;stroke:none" />
          <path
             d="m 434.869,483.971 -33.825,0 0,33.825 33.825,0 0,-33.825 z"
             id="path3059"
             style="fill:#000000;fill-opacity:1;fill-rule:nonzero;stroke:none" />
          <path
             d="m 494.603,483.971 -33.825,0 0,33.825 33.825,0 0,-33.825 z"
             id="path3061"
             style="fill:#000000;fill-opacity:1;fill-rule:nonzero;stroke:none" />
          <path
             d="m 494.603,119.839 -33.825,0 0,33.825 33.825,0 0,-33.825 z"
             id="path3063"
             style="fill:#000000;fill-opacity:1;fill-rule:nonzero;stroke:none" />
          <path
             d="m 554.337,483.971 -33.825,0 0,33.825 33.825,0 0,-33.825 z"
             id="path3065"
             style="fill:#000000;fill-opacity:1;fill-rule:nonzero;stroke:none" />
          <path
             d="m 614.071,483.971 -33.825,0 0,33.825 33.825,0 0,-33.825 z"
             id="path3067"
             style="fill:#000000;fill-opacity:1;fill-rule:nonzero;stroke:none" />
          <path
             d="m 673.805,483.971 -33.825,0 0,33.825 33.825,0 0,-33.825 z"
             id="path3069"
             style="fill:#000000;fill-opacity:1;fill-rule:nonzero;stroke:none" />
          <path
             d="m 733.539,483.971 -33.825,0 0,33.825 33.825,0 0,-33.825 z"
             id="path3071"
             style="fill:#000000;fill-opacity:1;fill-rule:nonzero;stroke:none" />
          <path
             d="m 793.272,483.971 -33.825,0 0,33.825 33.825,0 0,-33.825 z"
             id="path3073"
             style="fill:#000000;fill-opacity:1;fill-rule:nonzero;stroke:none" />
          <path
             d="m 255.667,543.814 -33.825,0 0,33.825 33.825,0 0,-33.825 z"
             id="path3075"
             style="fill:#000000;fill-opacity:1;fill-rule:nonzero;stroke:none" />
          <path
             d="m 315.401,543.814 -33.825,0 0,33.825 33.825,0 0,-33.825 z"
             id="path3077"
             style="fill:#000000;fill-opacity:1;fill-rule:nonzero;stroke:none" />
          <path
             d="m 375.135,543.814 -33.825,0 0,33.825 33.825,0 0,-33.825 z"
             id="path3079"
             style="fill:#000000;fill-opacity:1;fill-rule:nonzero;stroke:none" />
          <path
             d="m 434.869,543.814 -33.825,0 0,33.825 33.825,0 0,-33.825 z"
             id="path3081"
             style="fill:#000000;fill-opacity:1;fill-rule:nonzero;stroke:none" />
          <path
             d="m 494.603,543.814 -33.825,0 0,33.825 33.825,0 0,-33.825 z"
             id="path3083"
             style="fill:#000000;fill-opacity:1;fill-rule:nonzero;stroke:none" />
          <path
             d="m 554.337,543.814 -33.825,0 0,33.825 33.825,0 0,-33.825 z"
             id="path3085"
             style="fill:#000000;fill-opacity:1;fill-rule:nonzero;stroke:none" />
          <path
             d="m 673.805,543.814 -33.825,0 0,33.825 33.825,0 0,-33.825 z"
             id="path3087"
             style="fill:#000000;fill-opacity:1;fill-rule:nonzero;stroke:none" />
          <path
             d="m 733.539,543.814 -33.825,0 0,33.825 33.825,0 0,-33.825 z"
             id="path3089"
             style="fill:#000000;fill-opacity:1;fill-rule:nonzero;stroke:none" />
          <path
             d="m 793.272,543.814 -33.825,0 0,33.825 33.825,0 0,-33.825 z"
             id="path3091"
             style="fill:#000000;fill-opacity:1;fill-rule:nonzero;stroke:none" />
          <path
             d="m 255.667,603.656 -33.825,0 0,33.825 33.825,0 0,-33.825 z"
             id="path3093"
             style="fill:#000000;fill-opacity:1;fill-rule:nonzero;stroke:none" />
          <path
             d="m 196.729,483.971 -33.825,0 0,33.825 33.825,0 0,-33.825 z"
             id="path3095"
             style="fill:#000000;fill-opacity:1;fill-rule:nonzero;stroke:none" />
          <path
             d="m 196.729,543.814 -33.825,0 0,33.825 33.825,0 0,-33.825 z"
             id="path3097"
             style="fill:#000000;fill-opacity:1;fill-rule:nonzero;stroke:none" />
          <path
             d="m 196.729,603.656 -33.825,0 0,33.825 33.825,0 0,-33.825 z"
             id="path3099"
             style="fill:#000000;fill-opacity:1;fill-rule:nonzero;stroke:none" />
          <path
             d="m 315.401,603.656 -33.825,0 0,33.825 33.825,0 0,-33.825 z"
             id="path3101"
             style="fill:#000000;fill-opacity:1;fill-rule:nonzero;stroke:none" />
          <path
             d="m 375.135,603.656 -33.825,0 0,33.825 33.825,0 0,-33.825 z"
             id="path3103"
             style="fill:#000000;fill-opacity:1;fill-rule:nonzero;stroke:none" />
          <path
             d="m 494.603,603.656 -33.825,0 0,33.825 33.825,0 0,-33.825 z"
             id="path3105"
             style="fill:#000000;fill-opacity:1;fill-rule:nonzero;stroke:none" />
          <path
             d="m 554.337,603.656 -33.825,0 0,33.825 33.825,0 0,-33.825 z"
             id="path3107"
             style="fill:#000000;fill-opacity:1;fill-rule:nonzero;stroke:none" />
          <path
             d="m 614.071,603.656 -33.825,0 0,33.825 33.825,0 0,-33.825 z"
             id="path3109"
             style="fill:#000000;fill-opacity:1;fill-rule:nonzero;stroke:none" />
          <path
             d="m 673.805,603.656 -33.825,0 0,33.825 33.825,0 0,-33.825 z"
             id="path3111"
             style="fill:#000000;fill-opacity:1;fill-rule:nonzero;stroke:none" />
          <path
             d="m 733.539,603.656 -33.825,0 0,33.825 33.825,0 0,-33.825 z"
             id="path3113"
             style="fill:#000000;fill-opacity:1;fill-rule:nonzero;stroke:none" />
          <path
             d="m 793.272,603.656 -33.825,0 0,33.825 33.825,0 0,-33.825 z"
             id="path3115"
             style="fill:#000000;fill-opacity:1;fill-rule:nonzero;stroke:none" />
          <path
             d="m 854.21,483.971 -33.825,0 0,33.825 33.825,0 0,-33.825 z"
             id="path3117"
             style="fill:#000000;fill-opacity:1;fill-rule:nonzero;stroke:none" />
          <path
             d="m 854.21,543.814 -33.825,0 0,33.825 33.825,0 0,-33.825 z"
             id="path3119"
             style="fill:#000000;fill-opacity:1;fill-rule:nonzero;stroke:none" />
          <path
             d="m 854.21,603.656 -33.825,0 0,33.825 33.825,0 0,-33.825 z"
             id="path3121"
             style="fill:#000000;fill-opacity:1;fill-rule:nonzero;stroke:none" />
          <path
             d="m 255.667,663.499 -33.825,0 0,33.825 33.825,0 0,-33.825 z"
             id="path3123"
             style="fill:#000000;fill-opacity:1;fill-rule:nonzero;stroke:none" />
          <path
             d="m 315.401,663.499 -33.825,0 0,33.825 33.825,0 0,-33.825 z"
             id="path3125"
             style="fill:#000000;fill-opacity:1;fill-rule:nonzero;stroke:none" />
          <path
             d="m 375.135,663.499 -33.825,0 0,33.825 33.825,0 0,-33.825 z"
             id="path3127"
             style="fill:#000000;fill-opacity:1;fill-rule:nonzero;stroke:none" />
          <path
             d="m 434.869,663.499 -33.825,0 0,33.825 33.825,0 0,-33.825 z"
             id="path3129"
             style="fill:#000000;fill-opacity:1;fill-rule:nonzero;stroke:none" />
          <path
             d="m 494.603,663.499 -33.825,0 0,33.825 33.825,0 0,-33.825 z"
             id="path3131"
             style="fill:#000000;fill-opacity:1;fill-rule:nonzero;stroke:none" />
          <path
             d="m 614.071,663.499 -33.825,0 0,33.825 33.825,0 0,-33.825 z"
             id="path3133"
             style="fill:#000000;fill-opacity:1;fill-rule:nonzero;stroke:none" />
          <path
             d="m 673.805,663.499 -33.825,0 0,33.825 33.825,0 0,-33.825 z"
             id="path3135"
             style="fill:#000000;fill-opacity:1;fill-rule:nonzero;stroke:none" />
          <path
             d="m 733.539,663.499 -33.825,0 0,33.825 33.825,0 0,-33.825 z"
             id="path3137"
             style="fill:#000000;fill-opacity:1;fill-rule:nonzero;stroke:none" />
          <path
             d="m 793.272,663.499 -33.825,0 0,33.825 33.825,0 0,-33.825 z"
             id="path3139"
             style="fill:#000000;fill-opacity:1;fill-rule:nonzero;stroke:none" />
          <path
             d="m 375.135,723.342 -33.825,0 0,33.825 33.825,0 0,-33.825 z"
             id="path3141"
             style="fill:#000000;fill-opacity:1;fill-rule:nonzero;stroke:none" />
          <path
             d="m 434.869,723.342 -33.825,0 0,33.825 33.825,0 0,-33.825 z"
             id="path3143"
             style="fill:#000000;fill-opacity:1;fill-rule:nonzero;stroke:none" />
          <path
             d="m 494.603,723.342 -33.825,0 0,33.825 33.825,0 0,-33.825 z"
             id="path3145"
             style="fill:#000000;fill-opacity:1;fill-rule:nonzero;stroke:none" />
          <path
             d="m 554.337,723.342 -33.825,0 0,33.825 33.825,0 0,-33.825 z"
             id="path3147"
             style="fill:#000000;fill-opacity:1;fill-rule:nonzero;stroke:none" />
          <path
             d="m 614.071,723.342 -33.825,0 0,33.825 33.825,0 0,-33.825 z"
             id="path3149"
             style="fill:#000000;fill-opacity:1;fill-rule:nonzero;stroke:none" />
          <path
             d="m 673.805,723.342 -33.825,0 0,33.825 33.825,0 0,-33.825 z"
             id="path3151"
             style="fill:#000000;fill-opacity:1;fill-rule:nonzero;stroke:none" />
          <path
             d="m 375.135,783.185 -33.825,0 0,33.825 33.825,0 0,-33.825 z"
             id="path3153"
             style="fill:#000000;fill-opacity:1;fill-rule:nonzero;stroke:none" />
          <path
             d="m 434.869,783.185 -33.825,0 0,33.825 33.825,0 0,-33.825 z"
             id="path3155"
             style="fill:#000000;fill-opacity:1;fill-rule:nonzero;stroke:none" />
          <path
             d="m 494.603,783.185 -33.825,0 0,33.825 33.825,0 0,-33.825 z"
             id="path3157"
             style="fill:#000000;fill-opacity:1;fill-rule:nonzero;stroke:none" />
          <path
             d="m 554.337,783.185 -33.825,0 0,33.825 33.825,0 0,-33.825 z"
             id="path3159"
             style="fill:#000000;fill-opacity:1;fill-rule:nonzero;stroke:none" />
          <path
             d="m 614.071,783.185 -33.825,0 0,33.825 33.825,0 0,-33.825 z"
             id="path3161"
             style="fill:#000000;fill-opacity:1;fill-rule:nonzero;stroke:none" />
          <path
             d="m 434.869,843.027 -33.825,0 0,33.825 33.825,0 0,-33.825 z"
             id="path3163"
             style="fill:#000000;fill-opacity:1;fill-rule:nonzero;stroke:none" />
          <path
             d="m 494.603,843.027 -33.825,0 0,33.825 33.825,0 0,-33.825 z"
             id="path3165"
             style="fill:#000000;fill-opacity:1;fill-rule:nonzero;stroke:none" />
          <path
             d="m 554.337,843.027 -33.825,0 0,33.825 33.825,0 0,-33.825 z"
             id="path3167"
             style="fill:#000000;fill-opacity:1;fill-rule:nonzero;stroke:none" />
          <path
             d="m 614.071,843.027 -33.825,0 0,33.825 33.825,0 0,-33.825 z"
             id="path3169"
             style="fill:#000000;fill-opacity:1;fill-rule:nonzero;stroke:none" />
          <path
             d="m 481.8,425.161 -8.22,0 0,34.244 8.22,0 0,-34.244 z"
             id="path3171"
             style="fill:#000000;fill-opacity:1;fill-rule:nonzero;stroke:none" />
          <path
             d="m 542.459,663.499 -8.22,0 0,33.659 8.22,0 0,-33.659 z"
             id="path3173"
             style="fill:#000000;fill-opacity:1;fill-rule:nonzero;stroke:none" />
        </g>
      </g>
    </g>
  </g>
</svg>
