<?xml version="1.0" encoding="UTF-8" standalone="no"?>
<!-- Created with Inkscape (http://www.inkscape.org/) -->

<svg
   xmlns:ooo="http://xml.openoffice.org/svg/export"
   xmlns:dc="http://purl.org/dc/elements/1.1/"
   xmlns:cc="http://creativecommons.org/ns#"
   xmlns:rdf="http://www.w3.org/1999/02/22-rdf-syntax-ns#"
   xmlns:svg="http://www.w3.org/2000/svg"
   xmlns="http://www.w3.org/2000/svg"
   xmlns:sodipodi="http://sodipodi.sourceforge.net/DTD/sodipodi-0.dtd"
   xmlns:inkscape="http://www.inkscape.org/namespaces/inkscape"
   width="165"
   height="60"
   id="svg2"
   version="1.1"
   inkscape:version="0.48.4 r9939"
   sodipodi:docname="drawing_60.svg"
   inkscape:export-filename="/home/kkk/Desktop/drawing_60.png"
   inkscape:export-xdpi="90"
   inkscape:export-ydpi="90">
  <defs
     id="defs4">
    <clipPath
       id="presentation_clip_path"
       clipPathUnits="userSpaceOnUse">
      <rect
         x="0"
         y="0"
         width="21590"
         height="7894"
         id="rect3095" />
    </clipPath>
    <g
       ooo:slide="id1"
       ooo:id-list="id3"
       id="g3099" />
    <g
       id="bullet-char-template(57356)"
       transform="scale(4.8828125e-4,-4.8828125e-4)">
      <path
         inkscape:connector-curvature="0"
         d="M 580,1141 1163,571 580,0 -4,571 580,1141 z"
         id="path3104" />
    </g>
    <g
       id="bullet-char-template(57354)"
       transform="scale(4.8828125e-4,-4.8828125e-4)">
      <path
         inkscape:connector-curvature="0"
         d="m 8,1128 1129,0 L 1137,0 8,0 8,1128 z"
         id="path3107" />
    </g>
    <g
       id="bullet-char-template(10146)"
       transform="scale(4.8828125e-4,-4.8828125e-4)">
      <path
         inkscape:connector-curvature="0"
         d="M 174,0 602,739 174,1481 1456,739 174,0 z m 1184,739 -1049,607 350,-607 699,0 z"
         id="path3110" />
    </g>
    <g
       id="bullet-char-template(10132)"
       transform="scale(4.8828125e-4,-4.8828125e-4)">
      <path
         inkscape:connector-curvature="0"
         d="M 2015,739 1276,0 717,0 l 543,543 -1086,0 0,393 1086,0 -543,545 557,0 741,-742 z"
         id="path3113" />
    </g>
    <g
       id="bullet-char-template(10007)"
       transform="scale(4.8828125e-4,-4.8828125e-4)">
      <path
         inkscape:connector-curvature="0"
         d="m 0,-2 c -7,16 -16,29 -25,39 l 381,530 c -94,256 -141,385 -141,387 0,25 13,38 40,38 9,0 21,-2 34,-5 21,4 42,12 65,25 l 27,-13 111,-251 280,301 64,-25 24,25 c 21,-10 41,-24 62,-43 C 886,937 835,863 770,784 769,783 710,716 594,584 L 774,223 c 0,-27 -21,-55 -63,-84 l 16,-20 C 717,90 699,76 672,76 641,76 570,178 457,381 L 164,-76 c -22,-34 -53,-51 -92,-51 -42,0 -63,17 -64,51 -7,9 -10,24 -10,44 0,9 1,19 2,30 z"
         id="path3116" />
    </g>
    <g
       id="bullet-char-template(10004)"
       transform="scale(4.8828125e-4,-4.8828125e-4)">
      <path
         inkscape:connector-curvature="0"
         d="M 285,-33 C 182,-33 111,30 74,156 52,228 41,333 41,471 c 0,78 14,145 41,201 34,71 87,106 158,106 53,0 88,-31 106,-94 l 23,-176 c 8,-64 28,-97 59,-98 l 735,706 c 11,11 33,17 66,17 42,0 63,-15 63,-46 l 0,-122 c 0,-36 -10,-64 -30,-84 L 442,47 C 390,-6 338,-33 285,-33 z"
         id="path3119" />
    </g>
    <g
       id="bullet-char-template(9679)"
       transform="scale(4.8828125e-4,-4.8828125e-4)">
      <path
         inkscape:connector-curvature="0"
         d="M 813,0 C 632,0 489,54 383,161 276,268 223,411 223,592 c 0,181 53,324 160,431 106,107 249,161 430,161 179,0 323,-54 432,-161 108,-107 162,-251 162,-431 0,-180 -54,-324 -162,-431 C 1136,54 992,0 813,0 z"
         id="path3122" />
    </g>
    <g
       id="bullet-char-template(8226)"
       transform="scale(4.8828125e-4,-4.8828125e-4)">
      <path
         inkscape:connector-curvature="0"
         d="m 346,457 c -73,0 -137,26 -191,78 -54,51 -81,114 -81,188 0,73 27,136 81,188 54,52 118,78 191,78 73,0 134,-26 185,-79 51,-51 77,-114 77,-187 0,-75 -25,-137 -76,-188 -50,-52 -112,-78 -186,-78 z"
         id="path3125" />
    </g>
    <g
       id="bullet-char-template(8211)"
       transform="scale(4.8828125e-4,-4.8828125e-4)">
      <path
         inkscape:connector-curvature="0"
         d="m -4,459 1139,0 0,147 -1139,0 0,-147 z"
         id="path3128" />
    </g>
  </defs>
  <sodipodi:namedview
     id="base"
     pagecolor="#ffffff"
     bordercolor="#666666"
     borderopacity="1.0"
     inkscape:pageopacity="0.0"
     inkscape:pageshadow="2"
     inkscape:zoom="3.959798"
     inkscape:cx="199.74312"
     inkscape:cy="106.04729"
     inkscape:document-units="px"
     inkscape:current-layer="g3174"
     showgrid="false"
     inkscape:window-width="1871"
     inkscape:window-height="1056"
     inkscape:window-x="49"
     inkscape:window-y="24"
     inkscape:window-maximized="1" />
  <metadata
     id="metadata7">
    <rdf:RDF>
      <cc:Work
         rdf:about="">
        <dc:format>image/svg+xml</dc:format>
        <dc:type
           rdf:resource="http://purl.org/dc/dcmitype/StillImage" />
        <dc:title></dc:title>
      </cc:Work>
    </rdf:RDF>
  </metadata>
  <g
     inkscape:label="Layer 1"
     inkscape:groupmode="layer"
     id="layer1"
     transform="translate(0,-992.36218)">
    <g
       transform="translate(-81.428571,41.428575)"
       id="layer1-7"
       inkscape:label="Layer 1">
      <g
         transform="matrix(0.03543307,0,0,0.03543307,-69.854041,870.29114)"
         id="g3174"
         style="fill-rule:evenodd;stroke-width:28.22200012;stroke-linejoin:round">
        <g
           class="SlideGroup"
           id="g3137"
           transform="matrix(0.25819172,0,0,0.25819172,3742.0546,2303.6198)">
          <g
             id="g3139">
            <g
               id="id1"
               class="Slide"
               clip-path="url(#presentation_clip_path)">
              <g
                 class="Page"
                 id="g3142">
                <g
                   class="com.sun.star.drawing.ClosedBezierShape"
                   id="g3144">
                  <g
                     id="id3">
                    <path
                       style="fill:#4694ce;stroke:none"
                       inkscape:connector-curvature="0"
                       d="m 5182,4070 c 0,63 -42,118 -101,130 l -1193,193 c -77,16 -148,-47 -148,-131 l 0,-2029 c 0,-81 68,-143 143,-131 l 1194,152 c 60,10 105,66 105,131 l 0,1685 z M 5339,1998 3519,1710 c -107,-17 -203,65 -203,173 l 0,2722 c 0,110 101,192 209,171 l 1820,-325 c 83,-16 142,-88 142,-171 l 0,-2109 c 0,-86 -63,-159 -148,-173 z m -2858,371 0,1728 c 0,104 95,182 197,162 l 19,-3 0,-2047 -24,-4 c -101,-16 -192,62 -192,164 z m 411,-245 0,2213 c 0,104 96,182 198,162 l 18,-3 0,-2532 -24,-3 c -100,-16 -192,61 -192,163 z m 15731,1249 c 32,-240 185,-408 402,-408 236,0 371,180 394,408 l -796,0 z m 1143,65 c 0,-358 -244,-763 -738,-763 -444,0 -758,364 -758,807 l 0,6 c 0,477 347,802 797,802 241,0 417,-79 558,-205 27,-26 47,-64 47,-108 0,-82 -62,-144 -141,-144 -41,0 -65,12 -91,33 -100,82 -218,134 -368,134 -229,0 -408,-140 -446,-392 l 973,0 c 91,0 167,-71 167,-170 z m -2152,-32 c 0,252 -208,424 -455,424 -244,0 -441,-172 -441,-424 l 0,-6 c 0,-255 194,-426 441,-426 247,0 455,174 455,426 l 0,6 z m 171,-716 c -97,0 -176,79 -176,176 l 0,73 c -121,-143 -283,-264 -544,-264 -362,0 -706,270 -706,728 l 0,6 c 0,454 341,723 706,723 255,0 417,-117 546,-284 l 0,120 c 0,310 -173,474 -490,474 -180,0 -336,-43 -477,-123 -17,-8 -38,-14 -64,-14 -83,0 -150,67 -150,146 0,68 38,117 100,141 188,91 382,137 599,137 280,0 497,-67 638,-207 130,-129 197,-323 197,-583 l 0,-1070 c 0,-100 -79,-179 -179,-179 z m -2055,1009 c 0,196 -179,331 -414,331 -171,0 -303,-85 -303,-235 l 0,-6 c 0,-161 135,-257 364,-257 142,0 262,26 353,61 l 0,106 z m -344,-1012 c -203,0 -353,35 -500,91 -52,20 -97,76 -97,141 0,82 68,146 150,146 18,0 36,-3 56,-9 97,-38 209,-61 344,-61 250,0 385,118 385,337 l 0,39 c -120,-39 -244,-65 -417,-65 -379,0 -641,164 -641,498 l 0,6 c 0,310 259,477 550,477 238,0 400,-99 505,-225 l 0,58 c 0,79 71,150 174,150 97,0 173,-74 173,-170 l 0,-762 c 0,-202 -53,-367 -167,-478 -109,-111 -283,-173 -515,-173 z m -1290,798 c 0,304 -200,495 -444,495 -241,0 -453,-199 -453,-495 l 0,-6 c 0,-296 212,-496 453,-496 241,0 444,197 444,496 l 0,6 z m -359,-810 c -253,0 -414,129 -529,290 l 0,-96 c 0,-100 -79,-179 -179,-179 -100,0 -177,79 -177,179 l 0,1694 c 0,99 80,175 177,175 100,0 179,-76 179,-175 l 0,-548 c 109,143 270,272 529,272 368,0 720,-290 720,-802 l 0,-6 c 0,-517 -355,-804 -720,-804 z m -1593,1024 c 0,196 -179,331 -415,331 -170,0 -302,-85 -302,-235 l 0,-6 c 0,-161 135,-257 364,-257 141,0 262,26 353,61 l 0,106 z m -344,-1012 c -203,0 -353,35 -500,91 -53,20 -97,76 -97,141 0,82 68,146 150,146 18,0 35,-3 56,-9 97,-38 209,-61 344,-61 250,0 385,118 385,337 l 0,39 c -121,-39 -244,-65 -417,-65 -380,0 -641,164 -641,498 l 0,6 c 0,310 258,477 549,477 239,0 400,-99 506,-225 l 0,58 c 0,79 71,150 174,150 96,0 173,-74 173,-170 l 0,-762 c 0,-202 -53,-367 -168,-478 -108,-111 -282,-173 -514,-173 z m -1061,325 c 85,0 156,-67 156,-152 0,-85 -71,-152 -156,-152 l -280,0 0,-264 c 0,-97 -79,-176 -176,-176 -100,0 -179,79 -179,176 l 0,264 -59,0 c -85,0 -153,67 -153,152 0,85 68,152 153,152 l 59,0 0,815 c 0,340 185,454 447,454 94,0 167,-14 244,-41 50,-20 94,-73 94,-137 0,-82 -71,-147 -150,-147 -12,0 -47,9 -88,9 -121,0 -192,-56 -192,-193 l 0,-760 280,0 z m -1470,329 c -182,-58 -351,-105 -351,-219 l 0,-6 c 0,-89 81,-154 219,-154 108,0 238,41 364,106 24,12 41,17 71,17 82,0 147,-61 147,-143 0,-62 -36,-108 -86,-135 -149,-79 -323,-126 -487,-126 -310,0 -554,179 -554,473 l 0,6 c 0,296 256,389 486,454 182,55 347,96 347,216 l 0,6 c 0,103 -88,167 -241,167 -141,0 -298,-50 -448,-149 -21,-12 -47,-21 -77,-21 -82,0 -144,65 -144,144 0,58 30,102 68,123 179,123 395,184 592,184 323,0 576,-161 576,-486 l 0,-6 c 0,-278 -256,-380 -482,-451 z M 7719,2675 c -241,0 -385,126 -485,270 l 0,-76 c 0,-100 -80,-179 -180,-179 -100,0 -176,79 -176,179 l 0,1225 c 0,100 79,176 176,176 100,0 180,-76 180,-176 l 0,-712 c 0,-240 144,-384 350,-384 211,0 332,138 332,378 l 0,718 c 0,100 79,176 179,176 100,0 176,-76 176,-176 l 0,-826 c 0,-358 -202,-593 -552,-593 z M 6246,2189 c -103,0 -182,79 -182,179 l 0,1723 c 0,100 79,179 182,179 100,0 179,-79 179,-179 l 0,-1723 c 0,-100 -79,-179 -179,-179 z"
                       id="path3147" />
                  </g>
                </g>
              </g>
            </g>
          </g>
        </g>
        <g
           id="g3132">
          <g
             id="id2"
             class="Master_Slide">
            <g
               id="bg-id2"
               class="Background" />
            <g
               id="bo-id2"
               class="BackgroundObjects" />
          </g>
        </g>
      </g>
    </g>
  </g>
</svg>
